<?xml version="1.0" encoding="UTF-8"?>
<svg width="55px" height="62px" viewBox="0 0 55 62" version="1.1" xmlns="http://www.w3.org/2000/svg" xmlns:xlink="http://www.w3.org/1999/xlink">
    <!-- Generator: Sketch 52.5 (67469) - http://www.bohemiancoding.com/sketch -->
    <title>affordable</title>
    <desc>Created with Sketch.</desc>
    <g id="Page-1" stroke="none" stroke-width="1" fill="none" fill-rule="evenodd">
        <g id="affordable">
            <g id="Group">
                <path d="M19,5 C19,5 15,1 22,1 C28.9,1 30.1,3.7 27.5,5" id="Path" stroke="#01A2ED"></path>
                <g transform="translate(0.000000, 4.000000)">
                    <path d="M44.5,13.1 L32.9,1.5 C31.9,0.5 30.7,0 29.3,0 L16.7,0 C15.4,0 14.1,0.5 13.2,1.5 L1.5,13.1 C0.5,14.1 0,15.3 0,16.7 L0,39 C0,39.8 0.3,40.5 0.8,41 L45.2,41 C45.7,40.5 46,39.8 46,39 L46,16.7 C46,15.3 45.5,14.1 44.5,13.1 Z M23,13 C20.8,13 19,11.2 19,9 C19,6.8 20.8,5 23,5 C25.2,5 27,6.8 27,9 C27,11.2 25.2,13 23,13 Z" id="Shape" fill="#00B085" fill-rule="nonzero"></path>
                    <path d="M0.8,41 C0.3,41.5 0,42.2 0,43 L0,55 C0,56.7 1.3,58 3,58 L43,58 C44.7,58 46,56.7 46,55 L46,43 C46,42.2 45.7,41.5 45.2,41 L0.8,41 Z" id="Path" fill="#394051"></path>
                </g>
                <path d="M23,18 C20.2,18 18,15.8 18,13 C18,10.2 20.2,8 23,8 C25.8,8 28,10.2 28,13 C28,15.8 25.8,18 23,18 Z M23,10 C21.3,10 20,11.3 20,13 C20,14.7 21.3,16 23,16 C24.7,16 26,14.7 26,13 C26,11.3 24.7,10 23,10 Z" id="Shape" fill="#394051" fill-rule="nonzero"></path>
                <path d="M22.2,10.1 C22.3,11 22.2,12.1 21,12 C19.2,11.8 19.4,0.5 26,0.5 C32.6,0.5 50,4.1 53,31 C56,57.9 48.5,55 48.2,49 C47.9,43 48.8,13.9 47.9,10.4 C47.2,6.8 35.8,-3.5 26,3.1 C18.9,8 21.7,13 23.7,12.5 C24.3,12.4 24.7,11.8 24.9,10.7" id="Path" stroke="#01A2ED" stroke-linecap="round"></path>
                <g transform="translate(1.000000, 45.000000)" id="Path" stroke="#00B085">
                    <path d="M0,2.5 L2,0.5"></path>
                    <path d="M0,5.5 L5,0.5"></path>
                    <path d="M0,8.5 L8,0.5"></path>
                    <path d="M0,11.5 L11,0.5"></path>
                    <path d="M0,14.5 L14,0.5"></path>
                    <path d="M1.2,16.3 L17,0.5"></path>
                    <path d="M20,0.5 L4,16.5"></path>
                    <path d="M23,0.5 L7,16.5"></path>
                    <path d="M26,0.5 L10,16.5"></path>
                    <path d="M29,0.5 L13,16.5"></path>
                    <path d="M32,0.5 L16,16.5"></path>
                    <path d="M35,0.5 L19,16.5"></path>
                    <path d="M38,0.5 L22,16.5"></path>
                    <path d="M41,0.5 L25,16.5"></path>
                    <path d="M43.4,1.1 L28,16.5"></path>
                    <path d="M44,3.5 L31,16.5"></path>
                    <path d="M44,6.5 L34,16.5"></path>
                    <path d="M44,9.5 L37,16.5"></path>
                    <path d="M44,12.5 L40,16.5"></path>
                </g>
            </g>
            <g id="Group" transform="translate(10.000000, 21.000000)">
                <path d="M5.4,2 C7.4,2 8.4,3.1 8.4,5.3 C8.4,7.5 7.4,8.6 5.4,8.6 C3.4,8.6 2.4,7.5 2.4,5.3 C2.4,3.1 3.4,2 5.4,2 Z M5.4,0 C2.5,0 0.4,1.8 0.4,5.3 C0.4,8.8 2.5,10.6 5.4,10.6 C8.3,10.6 10.4,8.8 10.4,5.3 C10.4,1.8 8.3,0 5.4,0 Z" id="Shape" fill="#F8FAFC" fill-rule="nonzero"></path>
                <path d="M20.6,11.8 C22.6,11.8 23.6,12.9 23.6,15.1 C23.6,17.3 22.6,18.4 20.6,18.4 C18.6,18.4 17.6,17.3 17.6,15.1 C17.6,12.9 18.6,11.8 20.6,11.8 Z M20.6,9.8 C17.7,9.8 15.6,11.6 15.6,15.1 C15.6,18.6 17.7,20.4 20.6,20.4 C23.5,20.4 25.6,18.6 25.6,15.1 C25.6,11.6 23.5,9.8 20.6,9.8 Z" id="Shape" fill="#F8FAFC" fill-rule="nonzero"></path>
                <path d="M7.8,20.1 L18.3,0" id="Path" stroke="#F8FAFC" stroke-width="2"></path>
            </g>
        </g>
    </g>
</svg>