<?xml version="1.0" encoding="UTF-8"?>
<svg width="54px" height="55px" viewBox="0 0 54 55" version="1.1" xmlns="http://www.w3.org/2000/svg" xmlns:xlink="http://www.w3.org/1999/xlink">
    <!-- Generator: Sketch 52.5 (67469) - http://www.bohemiancoding.com/sketch -->
    <title>anywhere</title>
    <desc>Created with Sketch.</desc>
    <g id="Page-1" stroke="none" stroke-width="1" fill="none" fill-rule="evenodd">
        <g id="anywhere">
            <g id="Group">
                <polygon id="Path" fill="#03E2AB" points="37 27 37 2 37 2 17 0 17 0 17 27"></polygon>
                <path d="M17,0 L2.8,0.9 C1.8,1 1,1.8 1,2.9 L0,27 L17,27 L17,0 Z" id="Path" fill="#00B085"></path>
                <path d="M53,27 L54,2.2 C54,1.7 53.8,1.1 53.4,0.7 C53,0.2 52.3,-8.8817842e-16 51.7,0.1 L37,2 L37,27 L53,27 Z" id="Path" fill="#F2FFFC"></path>
                <path d="M53,27 L37,27 L37,53 L51.8,53.9 L51.9,53.9 C52.4,53.9 53,53.7 53.3,53.3 C53.7,52.9 53.9,52.4 53.9,51.8 L53,27 Z" id="Path" fill="#DFF4EF"></path>
                <polygon id="Path" fill="#01D9A4" points="37 53 37 27 17 27 17 55"></polygon>
                <path d="M0,27 L1,51.2 C1,52.2 1.8,53 2.7,53.1 L17,55 L17,27 L0,27 Z" id="Path" fill="#00B085"></path>
                <polygon id="Path" fill="#F8FAFC" points="20.9 47.4 21 41.4 17 41.3 17 47.8"></polygon>
                <polygon id="Path" fill="#6D7894" points="25 27 27.2 24.3 27.2 22.8 26.1 22.8 26.2 21.8 29.1 21.9 29.2 17.5 35.4 16.8 35 7.7 29.5 6.7 27.5 6.7 27.2 8.3 24.8 7.6 24 11 22 11.1 21.1 17.1 21.9 17.7 21.6 18.9 18.5 16.5 17 16.4 17 27"></polygon>
                <polygon id="Path" fill="#F8FAFC" points="17 16.4 12.4 16.1 9.2 19.8 2.8 22.1 2.9 27 17 27"></polygon>
                <polygon id="Path" fill="#B0BEC5" points="17 27 17 40.4 17.7 38.1 21.1 38.2 21.2 32.7 24.5 32.8 24.6 27.4 25 27"></polygon>
                <polygon id="Path" fill="#64708D" points="2.9 27 3 32.3 8.4 34.8 5.5 41.6 6.9 49.1 15.5 50.5 16.9 47.8 17 47.8 17 41.3 16.7 41.3 17 40.4 17 27"></polygon>
                <polygon id="Path" fill="#01A2ED" points="16.4 22.7 13.3 27 17 27 17 22.9"></polygon>
                <polygon id="Path" fill="#01A2ED" points="11.4 29.6 5.7 32.8 0.2 32.8 0.4 37 8.4 37 12.7 33.8 15.6 35.7 17 35.2 17 27 13.3 27"></polygon>
                <polygon id="Path" fill="#4DD0E1" points="35.1 51.1 32.1 48.4 31.8 46 29.2 46 26.7 37.9 26.6 36.7 37 32 36 27 35.8 27 31.7 27 31.7 30.3 27.2 29.8 26.8 27 17 27 17 35.2 21.4 33.6 23.9 35.5 24.1 36.5 26.1 38.3 27.7 47.3 30.9 49.6 31.7 52.5 32.5 53.5 36.2 53.1"></polygon>
                <path d="M26.8,27 L17,27 L17,22.9 L20.3,24.3 L25.9,21.2 L26.8,27 Z M31.7,26.2 L31.7,27 L35.8,27 L31.7,26.2 Z" id="Shape" fill="#0E90CF" fill-rule="nonzero"></path>
                <g transform="translate(11.000000, 40.000000)" id="Path">
                    <path d="M1.5,1.3 C1.2,1.2 1,1.4 0.9,1.7 C0.8,2 1,2.2 1.3,2.3 C2.8,2.6 4.4,2.9 6,3 L6,2 C4.5,1.8 3,1.6 1.5,1.3 Z" fill="#546E7A"></path>
                    <path d="M16.4,1.3 C16.3,1 16.1,0.9 15.8,0.9 C12.6,1.8 9.3,2.1 6,1.8 L6,2.8 C6.7,2.8 7.3,2.9 8,2.9 C10.7,2.9 13.4,2.5 16.1,1.8 C16.3,1.9 16.5,1.6 16.4,1.3 Z" fill="#03906D"></path>
                </g>
            </g>
            <g id="Group" transform="translate(41.000000, 28.000000)" stroke="#757575">
                <path d="M4.5,23.1 L0,22.9" id="Path"></path>
                <path d="M0,20.9 L9.7,21.4" id="Path"></path>
                <path d="M0,18.8 L10.8,19.4" id="Path"></path>
                <path d="M0,14.8 L8.8,15.1" id="Path"></path>
                <path d="M0,12.8 L10.8,13.1" id="Path"></path>
                <path d="M0,8.7 L8,9" id="Path"></path>
                <path d="M0,4.7 L10.7,4.9" id="Path"></path>
                <path d="M3.8,0.7 L0,0.7" id="Path"></path>
            </g>
            <g id="Group" transform="translate(41.000000, 1.000000)" stroke="#BDBDBD">
                <path d="M10.7,0.9 L0,2.1" id="Path"></path>
                <path d="M10.7,5 L0,6" id="Path"></path>
                <path d="M0,8 L6.3,7.4" id="Path"></path>
                <path d="M10.7,11.2 L0,11.9" id="Path"></path>
                <path d="M0,13.9 L7.7,13.4" id="Path"></path>
                <path d="M10.7,17.4 L0,17.8" id="Path"></path>
                <path d="M0,21.7 L10.7,21.5" id="Path"></path>
                <path d="M10.7,25.6 L0,25.6" id="Path"></path>
            </g>
            <path d="M19,5 C10.7,5 4,11.7 4,20 C4,30.2 15.5,43 19,43 C22.5,43 34,30.2 34,20 C34,11.7 27.3,5 19,5 Z M19,28 C14.6,28 11,24.4 11,20 C11,15.6 14.6,12 19,12 C23.4,12 27,15.6 27,20 C27,24.4 23.4,28 19,28 Z" id="Shape" fill="#394051" fill-rule="nonzero"></path>
        </g>
    </g>
</svg>