<?xml version="1.0" encoding="UTF-8"?>
<svg width="1096px" height="576px" viewBox="0 0 1096 576" version="1.1" xmlns="http://www.w3.org/2000/svg" xmlns:xlink="http://www.w3.org/1999/xlink">
    <!-- Generator: Sketch 52.5 (67469) - http://www.bohemiancoding.com/sketch -->
    <title>undraw_contact_us_15o2</title>
    <desc>Created with Sketch.</desc>
    <g id="Page-1" stroke="none" stroke-width="1" fill="none" fill-rule="evenodd">
        <g id="Desktop-HD" transform="translate(-257.000000, -2082.000000)">
            <g id="undraw_contact_us_15o2" transform="translate(257.000000, 2082.000000)">
                <g id="Group" opacity="0.1" transform="translate(425.000000, 40.000000)">
                    <ellipse id="Oval" fill="#3F3D56" cx="54.42" cy="323.12" rx="11.38" ry="14.9"></ellipse>
                    <path d="M63.43,259.37 C65.017586,256.598293 65.8390242,253.454048 65.81,250.26 C65.81,242.03 60.71,235.36 54.42,235.36 C48.13,235.36 43,242.05 43,250.28 C42.9709758,253.474048 43.792414,256.618293 45.38,259.39 C42.2074132,265.045449 42.2074132,271.944551 45.38,277.6 C42.2074132,283.255449 42.2074132,290.154551 45.38,295.81 C43.7897102,298.580602 42.9680769,301.725593 43,304.92 C43,313.14 48.1,319.82 54.38,319.82 C60.66,319.82 65.77,313.14 65.77,304.92 C65.8019231,301.725593 64.9802898,298.580602 63.39,295.81 C66.5625868,290.154551 66.5625868,283.255449 63.39,277.6 C66.5625868,271.944551 66.5625868,265.045449 63.39,259.39 L63.43,259.37 Z" id="Path" fill="#3F3D56"></path>
                    <ellipse id="Oval" fill="#3F3D56" cx="54.42" cy="232.07" rx="11.38" ry="14.9"></ellipse>
                    <ellipse id="Oval" fill="#3F3D56" cx="54.42" cy="213.86" rx="11.38" ry="14.9"></ellipse>
                    <path d="M11.82,89.23 C10.2604542,87.2531978 8.84354299,85.1679323 7.58,82.99 L37.48,78.08 L5.14,78.32 C-1.11747557,64.6696758 -1.47915218,49.0452462 4.14,35.12 L47.53,57.63 L7.53,28.21 C17.6681783,10.3872605 36.9474221,-0.24171369 57.4302813,0.69912844 C77.9131405,1.63997057 96.1368142,13.9915717 104.598441,32.6686587 C113.060067,51.3457458 110.329137,73.1907991 97.53,89.21 C99.9545149,92.2901826 102.039897,95.6227708 103.75,99.15 L64.92,119.37 L106.31,105.48 C112.219973,122.935522 108.91349,142.195131 97.52,156.68 C115.102511,179.030318 112.553308,211.1409 91.6645569,230.437052 C70.7758055,249.733204 38.5641945,249.733204 17.6754431,230.437052 C-3.2133083,211.1409 -5.76251108,179.030318 11.82,156.68 C-3.74087437,136.900313 -3.74087437,109.039687 11.82,89.26 L11.82,89.23 Z" id="Path" fill="#12A641"></path>
                    <path d="M109.19,122.94 C109.209698,135.170657 105.097427,147.049377 97.52,156.65 C115.102511,179.000318 112.553308,211.1109 91.6645569,230.407052 C70.7758055,249.703204 38.5641945,249.703204 17.6754431,230.407052 C-3.2133083,211.1109 -5.76251108,179.000318 11.82,156.65 C4.51,147.37 109.19,116.82 109.19,122.94 Z" id="Path" fill="#000000"></path>
                </g>
                <g id="Group" opacity="0.1" transform="translate(571.000000, 90.000000)">
                    <ellipse id="Oval" fill="#3F3D56" cx="41.28" cy="241.26" rx="8.51" ry="11.13"></ellipse>
                    <path d="M48,193.63 C49.1830132,191.560579 49.7939233,189.21358 49.77,186.83 C49.77,180.68 45.96,175.69 41.27,175.69 C36.58,175.69 32.76,180.69 32.76,186.83 C32.7342598,189.215097 33.3489656,191.563411 34.54,193.63 C32.1670833,197.856376 32.1670833,203.013624 34.54,207.24 C32.1670833,211.466376 32.1670833,216.623624 34.54,220.85 C33.3489656,222.916589 32.7342598,225.264903 32.76,227.65 C32.76,233.8 36.57,238.79 41.27,238.79 C45.97,238.79 49.77,233.79 49.77,227.65 C49.7939233,225.26642 49.1830132,222.919421 48,220.85 C50.3535104,216.618569 50.3535104,211.471431 48,207.24 C50.3535104,203.008569 50.3535104,197.861431 48,193.63 Z" id="Path" fill="#3F3D56"></path>
                    <ellipse id="Oval" fill="#3F3D56" cx="41.28" cy="173.22" rx="8.51" ry="11.13"></ellipse>
                    <ellipse id="Oval" fill="#3F3D56" cx="41.28" cy="159.61" rx="8.51" ry="11.13"></ellipse>
                    <path d="M9.44,66.48 C8.27233098,65.0051503 7.21289866,63.4477514 6.27,61.82 L28.62,58.15 L4.45,58.33 C-0.236017726,48.1311313 -0.518110037,36.4532329 3.67,26.04 L36.1,42.87 L6.19,20.87 C13.8145717,7.6449587 28.1913223,-0.209441052 43.4394115,0.51965957 C58.6875007,1.24876019 72.249244,10.4390633 78.5771817,24.3312559 C84.9051193,38.2234486 82.9378155,54.4872817 73.48,66.47 C75.28979,68.7742738 76.8486092,71.2650322 78.13,73.9 L49.13,88.97 L80.06,78.59 C84.4737078,91.6343378 82.0024866,106.025346 73.49,116.85 C86.6465256,133.547399 84.7532126,157.554011 69.1418952,171.982597 C53.5305779,186.411182 29.4494221,186.411182 13.8381048,171.982597 C-1.77321256,157.554011 -3.66652561,133.547399 9.49,116.85 C-2.13810121,102.06956 -2.13810121,81.2504403 9.49,66.47 L9.44,66.48 Z" id="Path" fill="#12A641"></path>
                    <path d="M82.2,91.67 C82.2135684,100.80916 79.1409617,109.685187 73.48,116.86 C86.6365256,133.557399 84.7432126,157.564011 69.1318952,171.992597 C53.5205779,186.421182 29.4394221,186.421182 13.8281048,171.992597 C-1.78321256,157.564011 -3.67652561,133.557399 9.48,116.86 C4,109.93 82.2,87.1 82.2,91.67 Z" id="Path" fill="#000000"></path>
                </g>
                <g id="Group" opacity="0.1" transform="translate(983.000000, 0.000000)">
                    <ellipse id="Oval" fill="#3F3D56" cx="55.58" cy="323.12" rx="11.38" ry="14.9"></ellipse>
                    <path d="M46.57,259.37 C44.982414,256.598293 44.1609758,253.454048 44.19,250.26 C44.19,242.03 49.29,235.36 55.58,235.36 C61.87,235.36 66.96,242.03 66.96,250.26 C66.9890242,253.454048 66.167586,256.598293 64.58,259.37 C67.7525868,265.025449 67.7525868,271.924551 64.58,277.58 C67.7525868,283.235449 67.7525868,290.134551 64.58,295.79 C66.1702898,298.560602 66.9919231,301.705593 66.96,304.9 C66.96,313.12 61.86,319.8 55.58,319.8 C49.3,319.8 44.19,313.12 44.19,304.9 C44.1580769,301.705593 44.9797102,298.560602 46.57,295.79 C43.3974132,290.134551 43.3974132,283.235449 46.57,277.58 C43.3974132,271.924551 43.3974132,265.025449 46.57,259.37 Z" id="Path" fill="#3F3D56"></path>
                    <ellipse id="Oval" fill="#3F3D56" cx="55.58" cy="232.07" rx="11.38" ry="14.9"></ellipse>
                    <ellipse id="Oval" fill="#3F3D56" cx="55.58" cy="213.86" rx="11.38" ry="14.9"></ellipse>
                    <path d="M98.18,89.23 C99.7395458,87.2531978 101.156457,85.1679323 102.42,82.99 L72.52,78.08 L104.86,78.32 C111.117476,64.6696758 111.479152,49.0452462 105.86,35.12 L62.47,57.63 L102.47,28.21 C92.3318217,10.3872605 73.0525779,-0.24171369 52.5697187,0.69912844 C32.0868595,1.63997057 13.8631858,13.9915717 5.40155927,32.6686587 C-3.06006723,51.3457458 -0.329136892,73.1907991 12.47,89.21 C10.0454851,92.2901826 7.96010285,95.6227708 6.25,99.15 L45.08,119.37 L3.69,105.48 C-2.2199733,122.935522 1.08651048,142.195131 12.48,156.68 C-5.10251108,179.030318 -2.5533083,211.1409 18.3354431,230.437052 C39.2241945,249.733204 71.4358055,249.733204 92.3245569,230.437052 C113.213308,211.1409 115.762511,179.030318 98.18,156.68 C113.740874,136.900313 113.740874,109.039687 98.18,89.26 L98.18,89.23 Z" id="Path" fill="#12A641"></path>
                    <path d="M0.81,122.94 C0.790301796,135.170657 4.90257299,147.049377 12.48,156.65 C-5.10251108,179.000318 -2.5533083,211.1109 18.3354431,230.407052 C39.2241945,249.703204 71.4358055,249.703204 92.3245569,230.407052 C113.213308,211.1109 115.762511,179.000318 98.18,156.65 C105.49,147.37 0.81,116.82 0.81,122.94 Z" id="Path" fill="#000000"></path>
                </g>
                <g id="Group" opacity="0.1" transform="translate(887.000000, 84.000000)">
                    <ellipse id="Oval" fill="#3F3D56" cx="41.72" cy="241.26" rx="8.51" ry="11.13"></ellipse>
                    <path d="M35,193.63 C33.8169868,191.560579 33.2060767,189.21358 33.23,186.83 C33.23,180.68 37.04,175.69 41.73,175.69 C46.42,175.69 50.24,180.69 50.24,186.83 C50.2657402,189.215097 49.6510344,191.563411 48.46,193.63 C50.8329167,197.856376 50.8329167,203.013624 48.46,207.24 C50.8329167,211.466376 50.8329167,216.623624 48.46,220.85 C49.6510344,222.916589 50.2657402,225.264903 50.24,227.65 C50.24,233.8 46.43,238.79 41.73,238.79 C37.03,238.79 33.23,233.79 33.23,227.65 C33.2060767,225.26642 33.8169868,222.919421 35,220.85 C32.6464896,216.618569 32.6464896,211.471431 35,207.24 C32.6464896,203.008569 32.6464896,197.861431 35,193.63 Z" id="Path" fill="#3F3D56"></path>
                    <ellipse id="Oval" fill="#3F3D56" cx="41.72" cy="173.22" rx="8.51" ry="11.13"></ellipse>
                    <ellipse id="Oval" fill="#3F3D56" cx="41.72" cy="159.61" rx="8.51" ry="11.13"></ellipse>
                    <path d="M73.56,66.48 C74.727669,65.0051503 75.7871013,63.4477514 76.73,61.82 L54.38,58.15 L78.55,58.33 C83.2360177,48.1311313 83.51811,36.4532329 79.33,26.04 L46.9,42.87 L76.81,20.87 C69.1854283,7.6449587 54.8086777,-0.209441052 39.5605885,0.51965957 C24.3124993,1.24876019 10.750756,10.4390633 4.42281835,24.3312559 C-1.90511931,38.2234486 0.0621844985,54.4872817 9.52,66.47 C7.71021,68.7742738 6.15139076,71.2650322 4.87,73.9 L33.87,88.97 L3,78.6 C-1.41370783,91.6443378 1.05751338,106.035346 9.57,116.86 C-3.58652561,133.557399 -1.69321256,157.564011 13.9181048,171.992597 C29.5294221,186.421182 53.6105779,186.421182 69.2218952,171.992597 C84.8332126,157.564011 86.7265256,133.557399 73.57,116.86 C85.1981012,102.07956 85.1981012,81.2604403 73.57,66.48 L73.56,66.48 Z" id="Path" fill="#12A641"></path>
                    <path d="M0.8,91.67 C0.786431626,100.80916 3.85903834,109.685187 9.52,116.86 C-3.63652561,133.557399 -1.74321256,157.564011 13.8681048,171.992597 C29.4794221,186.421182 53.5605779,186.421182 69.1718952,171.992597 C84.7832126,157.564011 86.6765256,133.557399 73.52,116.86 C79,109.93 0.8,87.1 0.8,91.67 Z" id="Path" fill="#000000"></path>
                </g>
                <g id="Group" opacity="0.1" transform="translate(7.000000, 0.000000)">
                    <ellipse id="Oval" fill="#3F3D56" cx="54.59" cy="323.12" rx="11.38" ry="14.9"></ellipse>
                    <path d="M63.59,259.37 C65.177586,256.598293 65.9990242,253.454048 65.97,250.26 C65.97,242.03 60.87,235.36 54.59,235.36 C48.31,235.36 43.21,242.03 43.21,250.26 C43.1779337,253.453133 43.9959049,256.597318 45.58,259.37 C42.4190951,265.028496 42.4190951,271.921504 45.58,277.58 C42.4190951,283.238496 42.4190951,290.131504 45.58,295.79 C43.9927491,298.561396 43.174551,301.706453 43.21,304.9 C43.21,313.12 48.3,319.8 54.59,319.8 C60.88,319.8 66,313.14 66,304.92 C66.0319231,301.725593 65.2102898,298.580602 63.62,295.81 C66.7925868,290.154551 66.7925868,283.255449 63.62,277.6 C66.7925868,271.944551 66.7925868,265.045449 63.62,259.39 L63.59,259.37 Z" id="Path" fill="#3F3D56"></path>
                    <ellipse id="Oval" fill="#3F3D56" cx="54.59" cy="232.07" rx="11.38" ry="14.9"></ellipse>
                    <ellipse id="Oval" fill="#3F3D56" cx="54.59" cy="213.86" rx="11.38" ry="14.9"></ellipse>
                    <path d="M12,89.23 C10.4437861,87.2507584 9.02703804,85.165733 7.76,82.99 L37.67,78.08 L5.3,78.37 C-0.957475572,64.7196758 -1.31915218,49.0952462 4.3,35.17 L47.7,57.68 L7.7,28.26 C17.8631161,10.4914713 37.1227342,-0.0870648818 57.5701489,0.868326263 C78.0175635,1.82371741 96.2068752,14.1520287 104.668886,32.7908033 C113.130896,51.429578 110.439545,73.2377175 97.7,89.26 C100.124515,92.3401826 102.209897,95.6727708 103.92,99.2 L65.08,119.37 L106.48,105.48 C112.375905,122.938066 109.066573,142.19236 97.68,156.68 C115.262511,179.030318 112.713308,211.1409 91.8245569,230.437052 C70.9358055,249.733204 38.7241945,249.733204 17.8354431,230.437052 C-3.0533083,211.1409 -5.60251108,179.030318 11.98,156.68 C-3.58087437,136.900313 -3.58087437,109.039687 11.98,89.26 L12,89.23 Z" id="Path" fill="#12A641"></path>
                    <path d="M109.35,122.94 C109.369698,135.170657 105.257427,147.049377 97.68,156.65 C115.262511,179.000318 112.713308,211.1109 91.8245569,230.407052 C70.9358055,249.703204 38.7241945,249.703204 17.8354431,230.407052 C-3.0533083,211.1109 -5.60251108,179.000318 11.98,156.65 C4.67,147.37 109.35,116.82 109.35,122.94 Z" id="Path" fill="#000000"></path>
                </g>
                <g id="Group" opacity="0.1" transform="translate(130.000000, 84.000000)">
                    <ellipse id="Oval" fill="#3F3D56" cx="41.44" cy="241.26" rx="8.51" ry="11.13"></ellipse>
                    <path d="M48.17,193.63 C49.3530132,191.560579 49.9639233,189.21358 49.94,186.83 C49.94,180.68 46.14,175.69 41.44,175.69 C36.74,175.69 32.93,180.69 32.93,186.83 C32.9091184,189.214496 33.5234956,191.561555 34.71,193.63 C32.3370833,197.856376 32.3370833,203.013624 34.71,207.24 C32.3370833,211.466376 32.3370833,216.623624 34.71,220.85 C33.5234956,222.918445 32.9091184,225.265504 32.93,227.65 C32.93,233.8 36.74,238.79 41.44,238.79 C46.14,238.79 49.94,233.79 49.94,227.65 C49.9639233,225.26642 49.3530132,222.919421 48.17,220.85 C50.5235104,216.618569 50.5235104,211.471431 48.17,207.24 C50.5235104,203.008569 50.5235104,197.861431 48.17,193.63 Z" id="Path" fill="#3F3D56"></path>
                    <ellipse id="Oval" fill="#3F3D56" cx="41.44" cy="173.22" rx="8.51" ry="11.13"></ellipse>
                    <ellipse id="Oval" fill="#3F3D56" cx="41.44" cy="159.61" rx="8.51" ry="11.13"></ellipse>
                    <path d="M9.6,66.48 C8.43563917,65.0027232 7.3763712,63.4455659 6.43,61.82 L28.78,58.15 L4.61,58.33 C-0.0760177263,48.1311313 -0.358110037,36.4532329 3.83,26.04 L36.26,42.87 L6.35,20.87 C13.9745717,7.6449587 28.3513223,-0.209441052 43.5994115,0.51965957 C58.8475007,1.24876019 72.409244,10.4390633 78.7371817,24.3312559 C85.0651193,38.2234486 83.0978155,54.4872817 73.64,66.47 C75.4567023,68.7694095 77.0160056,71.2609415 78.29,73.9 L49.29,88.97 L80.22,78.59 C84.6337078,91.6343378 82.1624866,106.025346 73.65,116.85 C86.8065256,133.547399 84.9132126,157.554011 69.3018952,171.982597 C53.6905779,186.411182 29.6094221,186.411182 13.9981048,171.982597 C-1.61321256,157.554011 -3.50652561,133.547399 9.65,116.85 C-1.97810121,102.06956 -1.97810121,81.2504403 9.65,66.47 L9.6,66.48 Z" id="Path" fill="#12A641"></path>
                    <path d="M82.36,91.67 C82.3735684,100.80916 79.3009617,109.685187 73.64,116.86 C86.7965256,133.557399 84.9032126,157.564011 69.2918952,171.992597 C53.6805779,186.421182 29.5994221,186.421182 13.9881048,171.992597 C-1.62321256,157.564011 -3.51652561,133.557399 9.64,116.86 C4.14,109.93 82.36,87.1 82.36,91.67 Z" id="Path" fill="#000000"></path>
                </g>
                <ellipse id="Oval" fill="#12A641" opacity="0.1" cx="548" cy="494.13" rx="548" ry="8.86"></ellipse>
                <ellipse id="Oval" fill="#12A641" opacity="0.1" cx="548" cy="566.88" rx="548" ry="8.86"></ellipse>
                <ellipse id="Oval" fill="#12A641" opacity="0.1" cx="548" cy="342.3" rx="548" ry="8.86"></ellipse>
                <ellipse id="Oval" fill="#12A641" opacity="0.1" cx="548" cy="418.21" rx="548" ry="8.86"></ellipse>
                <path d="M808.79,111.37 C805.219856,110.695844 801.52984,111.099658 798.19,112.53 C794.135501,114.336733 789.504499,114.336733 785.45,112.53 C780.649298,110.422833 775.165668,110.52885 770.45,112.82 C769.122565,113.525209 767.643126,113.895927 766.14,113.9 C760.06,113.9 755.01,107.78 753.96,99.71 C755.156511,98.8181036 756.174263,97.7087532 756.96,96.44 C760.52,90.7 766.03,87.01 772.23,87.01 C778.43,87.01 783.87,90.65 787.43,96.33 C789.586703,99.8208339 793.417028,101.923906 797.52,101.87 L797.68,101.87 C802.57,101.82 806.76,105.7 808.79,111.37 Z" id="Path" fill="#12A641" opacity="0.1"></path>
                <path d="M827.3,86.02 L817.48,92.24 L823.48,81.4 C821.790124,80.0549794 819.69969,79.3124178 817.54,79.29 L817.38,79.29 C816.710213,79.2991155 816.040934,79.2489196 815.38,79.14 L812,81.25 L813.43,78.65 C811.06714,77.8321482 809.025476,76.2842655 807.6,74.23 L801.6,78.01 L805.36,71.17 C801.88,66.99 797.18,64.43 792.02,64.43 C785.82,64.43 780.31,68.11 776.74,73.85 C774.597733,77.3438323 770.74624,79.4203556 766.65,79.29 L766.32,79.29 C759.48,79.29 753.94,87.04 753.94,96.6 C753.94,106.16 759.48,113.92 766.32,113.92 C767.822379,113.909987 769.300422,113.539619 770.63,112.84 C775.343543,110.542944 780.828381,110.433248 785.63,112.54 C789.681781,114.359465 794.318219,114.359465 798.37,112.54 C803.131795,110.481126 808.55216,110.586907 813.23,112.83 C814.545067,113.518215 816.005758,113.881674 817.49,113.89 C824.33,113.89 829.87,106.13 829.87,96.57 C829.911273,92.8934965 829.027516,89.265623 827.3,86.02 Z" id="Path" fill="#12A641" opacity="0.1"></path>
                <path d="M391.26,105.96 C388.757807,105.487259 386.171552,105.769206 383.83,106.77 C380.995076,108.036769 377.754924,108.036769 374.92,106.77 C371.562313,105.295362 367.725978,105.372162 364.43,106.98 C363.503231,107.463329 362.475186,107.72034 361.43,107.73 C357.18,107.73 353.64,103.45 352.9,97.8 C353.748374,97.1781725 354.47114,96.4011135 355.03,95.51 C357.52,91.51 361.38,88.91 365.72,88.91 C370.06,88.91 373.87,91.46 376.36,95.43 C377.872474,97.8744207 380.555735,99.3469882 383.43,99.31 L383.54,99.31 C386.9,99.29 389.83,102.01 391.26,105.96 Z" id="Path" fill="#12A641" opacity="0.1"></path>
                <path d="M404.21,88.23 L397.34,92.59 L401.51,85 C400.331149,84.0563651 398.869935,83.5352573 397.36,83.52 L397.24,83.52 C396.764247,83.5285219 396.288765,83.4916887 395.82,83.41 L393.49,84.89 L394.49,83.07 C392.83846,82.4954945 391.410551,81.414064 390.41,79.98 L386.24,82.62 L388.88,77.84 C386.634855,74.9408491 383.205635,73.2042097 379.54,73.11 C375.2,73.11 371.34,75.69 368.85,79.71 C367.34773,82.156629 364.649598,83.6106432 361.78,83.52 L361.55,83.52 C356.76,83.52 352.88,88.94 352.88,95.64 C352.88,102.34 356.76,107.76 361.55,107.76 C362.596604,107.751893 363.625772,107.49117 364.55,107 C367.845319,105.401144 371.676078,105.328038 375.03,106.8 C376.44042,107.4432 377.969926,107.783847 379.52,107.8 C381.04588,107.797315 382.554513,107.477199 383.95,106.86 C387.282147,105.417923 391.07576,105.490878 394.35,107.06 C395.2757,107.544966 396.304959,107.79885 397.35,107.8 C402.13,107.8 406.01,102.37 406.01,95.68 C406.050474,93.0843171 405.431117,90.520869 404.21,88.23 Z" id="Path" fill="#12A641" opacity="0.1"></path>
                <path d="M269.59,184.37 C272.088927,183.898072 274.671753,184.180025 277.01,185.18 C279.848315,186.447207 283.091685,186.447207 285.93,185.18 C289.287314,183.707669 293.121248,183.780766 296.42,185.38 C297.343796,185.872288 298.373244,186.133081 299.42,186.14 C303.67,186.14 307.21,181.85 307.94,176.2 C307.092425,175.580348 306.372564,174.802763 305.82,173.91 C303.32,169.91 299.46,167.32 295.13,167.32 C290.8,167.32 286.98,169.86 284.48,173.84 C282.969372,176.281343 280.29072,177.753463 277.42,177.72 L277.31,177.72 C273.94,177.74 271,180.45 269.59,184.37 Z" id="Path" fill="#12A641" opacity="0.1"></path>
                <path d="M256.63,166.67 L263.51,171.03 L259.33,163.45 C260.51175,162.503398 261.975989,161.978947 263.49,161.96 L263.6,161.96 C264.078629,161.966897 264.556989,161.933445 265.03,161.86 L267.36,163.33 L266.36,161.52 C268.008195,160.944263 269.432553,159.862871 270.43,158.43 L274.6,161.07 L272,156.28 C274.246206,153.383479 277.675698,151.650374 281.34,151.56 C285.67,151.56 289.54,154.14 292.03,158.16 C293.530476,160.603463 296.223928,162.057011 299.09,161.97 L299.33,161.97 C304.11,161.97 307.99,167.4 307.99,174.09 C307.99,180.78 304.11,186.21 299.33,186.21 C298.284177,186.20537 297.254964,185.948066 296.33,185.46 C293.034022,183.852162 289.197687,183.775362 285.84,185.25 C284.434975,185.898728 282.907526,186.239676 281.36,186.25 C279.830749,186.248704 278.318569,185.928558 276.92,185.31 C273.591237,183.868317 269.800815,183.94128 266.53,185.51 C265.6043,185.994966 264.575041,186.24885 263.53,186.25 C258.74,186.25 254.86,180.83 254.86,174.13 C254.813388,171.534066 255.422157,168.968295 256.63,166.67 Z" id="Path" fill="#12A641" opacity="0.1"></path>
                <path d="M664.31,491.26 C666.92,486.42 663.96,480.5 660.56,476.19 C657.16,471.88 653,467.39 653.09,461.9 C653.22,454.01 661.6,449.34 668.29,445.16 C673.258137,442.044833 677.840021,438.352472 681.94,434.16 C683.654611,432.546143 685.072776,430.643973 686.13,428.54 C687.52,425.46 687.48,421.94 687.39,418.54 C687.103333,407.28 686.546667,396.026667 685.72,384.78" id="Path" stroke="#3F3D56" stroke-width="4"></path>
                <path d="M698.45,384.22 C698.253767,380.028284 695.935773,376.225267 692.3,374.13 L689.54,379.58 L689.63,372.98 C684.494094,371.46784 678.969713,373.448664 675.964833,377.879788 C672.959954,382.310912 673.163686,388.176143 676.468787,392.388087 C679.773889,396.60003 685.422399,398.192758 690.441001,396.327875 C695.459604,394.462992 698.697381,389.568174 698.45,384.22 Z" id="Path" fill="#12A641"></path>
                <path d="M676.49,467.54 C673.944099,472.488392 668.394994,475.11338 662.954575,473.942894 C657.514157,472.772408 653.535582,468.097575 653.25,462.54 C653.15799,460.835403 653.430727,459.130792 654.05,457.54 C655.905858,452.790664 660.495679,449.675375 665.594657,449.704196 C670.693634,449.733016 675.247947,452.899989 677.05,457.67 L669.36,463.93 L677.82,461.93 C677.829694,463.879226 677.373712,465.80258 676.49,467.54 Z" id="Path" fill="#12A641"></path>
                <path d="M670.41,443.64 C664.15557,443.934627 658.676421,439.487443 657.678201,433.30616 C656.679982,427.124877 660.48076,421.179071 666.51,419.49 L666.44,424.56 L669.23,419.04 C676.023102,418.722436 681.787436,423.971898 682.105,430.765 C682.422564,437.558102 677.173102,443.322436 670.38,443.64 L670.41,443.64 Z" id="Path" fill="#12A641"></path>
                <path d="M700.3,423.75 C695.065385,424.020502 690.233591,420.946623 688.260335,416.090635 C686.287079,411.234646 687.605197,405.661718 691.544769,402.204242 C695.48434,398.746766 701.181212,398.163145 705.74,400.75 L703.57,406.75 L708,402.37 C711.663846,405.729129 712.947961,410.962125 711.255242,415.635691 C709.562523,420.309257 705.225165,423.506212 700.26,423.74 L700.3,423.75 Z" id="Path" fill="#12A641"></path>
                <path d="M696.79,387.5 C693.95,387.81 691.19,388.69 688.33,388.87 C685.47,389.05 682.33,388.36 680.55,386.15 C679.712834,384.862155 678.95154,383.526552 678.27,382.15 C677.492594,380.936483 676.427797,379.933512 675.17,379.23 C672.995685,383.489375 673.484994,388.622568 676.424868,392.394445 C679.364743,396.166322 684.223088,397.894203 688.884447,396.825721 C693.545805,395.757239 697.166508,392.08578 698.17,387.41 C697.72,387.42 697.25,387.45 696.79,387.5 Z" id="Path" fill="#000000" opacity="0.1"></path>
                <path d="M700.3,423.75 C695.982568,423.954408 691.874232,421.879508 689.476197,418.283479 C687.078161,414.687449 686.741792,410.097189 688.59,406.19 C689.565895,406.849241 690.404708,407.69145 691.06,408.67 C691.795456,410.071861 692.610107,411.430725 693.5,412.74 C695.42,414.99 698.7,415.74 701.67,415.59 C704.64,415.44 707.51,414.59 710.47,414.34 C710.88,414.34 711.29,414.28 711.71,414.27 C710.451543,419.624127 705.794065,423.493794 700.3,423.75 Z" id="Path" fill="#000000" opacity="0.1"></path>
                <path d="M670.41,443.64 C666.138649,443.840122 662.069435,441.809336 659.661409,438.275797 C657.253382,434.742258 656.851553,430.212233 658.6,426.31 C659.614619,426.977896 660.49906,427.825063 661.21,428.81 C662.016344,430.245401 662.90794,431.631216 663.88,432.96 C665.95,435.27 669.45,436.09 672.59,435.96 C675.73,435.83 678.59,435.15 681.59,434.96 C680.060463,439.917191 675.591611,443.386747 670.41,443.64 Z" id="Path" fill="#000000" opacity="0.1"></path>
                <path d="M676.49,467.54 C673.944099,472.488392 668.394994,475.11338 662.954575,473.942894 C657.514157,472.772408 653.535582,468.097575 653.25,462.54 C653.15799,460.835403 653.430727,459.130792 654.05,457.54 C655.063999,458.205691 655.973861,459.017827 656.75,459.95 C657.92,461.37 658.69,462.95 660.05,464.32 C662.56,466.79 666.63,467.81 670.24,467.9 C672.328693,467.906362 674.415851,467.786141 676.49,467.54 Z" id="Path" fill="#000000" opacity="0.1"></path>
                <path d="M54.31,419.26 C56.92,414.42 53.96,408.5 50.56,404.19 C47.16,399.88 43,395.37 43.09,389.9 C43.22,382.01 51.6,377.34 58.29,373.16 C63.2581369,370.044833 67.8400212,366.352472 71.94,362.16 C73.6546105,360.546143 75.072776,358.643973 76.13,356.54 C77.52,353.46 77.48,349.94 77.39,346.54 C77.0966667,335.28 76.54,324.026667 75.72,312.78" id="Path" stroke="#3F3D56" stroke-width="4"></path>
                <path d="M88.45,312.22 C88.2537667,308.028284 85.9357729,304.225267 82.3,302.13 L79.54,307.58 L79.63,300.98 C74.4940936,299.46784 68.9697132,301.448664 65.9648335,305.879788 C62.9599538,310.310912 63.1636858,316.176143 66.4687873,320.388087 C69.7738888,324.60003 75.4223985,326.192758 80.4410014,324.327875 C85.4596044,322.462992 88.6973808,317.568174 88.45,312.22 Z" id="Path" fill="#12A641"></path>
                <path d="M66.49,395.54 C63.9440987,400.488392 58.394994,403.11338 52.9545754,401.942894 C47.5141567,400.772408 43.5355815,396.097575 43.25,390.54 C43.1579897,388.835403 43.4307275,387.130792 44.05,385.54 C45.9058583,380.790664 50.4956793,377.675375 55.5946567,377.704196 C60.6936342,377.733016 65.2479467,380.899989 67.05,385.67 L59.36,391.93 L67.82,389.93 C67.8296943,391.879226 67.373712,393.80258 66.49,395.54 Z" id="Path" fill="#12A641"></path>
                <path d="M60.41,371.64 C54.1555701,371.934627 48.6764207,367.487443 47.6782011,361.30616 C46.6799815,355.124877 50.4807599,349.179071 56.51,347.49 L56.44,352.56 L59.23,347.04 C63.6243669,346.834572 67.7945239,348.989116 70.169613,352.692035 C72.5447022,356.394955 72.763891,361.083688 70.744613,364.992036 C68.7253351,368.900383 64.7743669,371.434573 60.38,371.64 L60.41,371.64 Z" id="Path" fill="#12A641"></path>
                <path d="M90.3,351.75 C85.0653853,352.020502 80.2335911,348.946623 78.2603349,344.090635 C76.2870787,339.234646 77.6051974,333.661718 81.5447687,330.204242 C85.4843399,326.746766 91.1812124,326.163145 95.74,328.75 L93.57,334.75 L98,330.37 C101.663846,333.729129 102.947961,338.962125 101.255242,343.635691 C99.5625235,348.309257 95.2251645,351.506212 90.26,351.74 L90.3,351.75 Z" id="Path" fill="#12A641"></path>
                <path d="M86.79,315.5 C83.95,315.81 81.19,316.69 78.33,316.87 C75.47,317.05 72.33,316.36 70.55,314.15 C69.712834,312.862155 68.9515398,311.526552 68.27,310.15 C67.4925945,308.936483 66.4277969,307.933512 65.17,307.23 C62.995685,311.489375 63.484994,316.622568 66.4248683,320.394445 C69.3647426,324.166322 74.223088,325.894203 78.8844467,324.825721 C83.5458053,323.757239 87.1665077,320.08578 88.17,315.41 C87.72,315.42 87.25,315.45 86.79,315.5 Z" id="Path" fill="#000000" opacity="0.1"></path>
                <path d="M90.3,351.75 C85.982568,351.954408 81.8742323,349.879508 79.4761967,346.283479 C77.0781612,342.687449 76.741792,338.097189 78.59,334.19 C79.5658947,334.849241 80.4047076,335.69145 81.06,336.67 C81.7954563,338.071861 82.6101071,339.430725 83.5,340.74 C85.42,342.99 88.7,343.74 91.67,343.59 C94.64,343.44 97.51,342.59 100.47,342.34 C100.88,342.34 101.29,342.28 101.71,342.27 C100.451543,347.624127 95.7940647,351.493794 90.3,351.75 Z" id="Path" fill="#000000" opacity="0.1"></path>
                <path d="M60.41,371.64 C56.1386492,371.840122 52.0694348,369.809336 49.6614086,366.275797 C47.2533825,362.742258 46.8515531,358.212233 48.6,354.31 C49.6146187,354.977896 50.4990605,355.825063 51.21,356.81 C52.0163437,358.245401 52.9079402,359.631216 53.88,360.96 C55.95,363.27 59.45,364.09 62.59,363.96 C65.73,363.83 68.59,363.15 71.59,362.96 C70.060463,367.917191 65.5916105,371.386747 60.41,371.64 Z" id="Path" fill="#000000" opacity="0.1"></path>
                <path d="M66.49,395.54 C63.9440987,400.488392 58.394994,403.11338 52.9545754,401.942894 C47.5141567,400.772408 43.5355815,396.097575 43.25,390.54 C43.1579897,388.835403 43.4307275,387.130792 44.05,385.54 C45.0639985,386.205691 45.9738614,387.017827 46.75,387.95 C47.92,389.37 48.69,390.95 50.05,392.32 C52.56,394.79 56.63,395.81 60.24,395.9 C62.3286927,395.906362 64.4158515,395.786141 66.49,395.54 Z" id="Path" fill="#000000" opacity="0.1"></path>
                <path d="M460.52,336.89 C457.91,332.06 460.87,326.14 464.28,321.83 C467.69,317.52 471.83,313.03 471.74,307.54 C471.62,299.64 463.24,294.98 456.54,290.8 C451.573723,287.686488 446.994964,283.99394 442.9,279.8 C441.177251,278.194891 439.754932,276.295079 438.7,274.19 C437.32,271.1 437.36,267.59 437.44,264.19 C437.74,252.93 438.296667,241.676667 439.11,230.43" id="Path" stroke="#3F3D56" stroke-width="4"></path>
                <path d="M426.39,229.86 C426.582274,225.669731 428.896726,221.86634 432.53,219.77 L435.29,225.22 L435.21,218.62 C436.524492,218.238103 437.89236,218.072608 439.26,218.13 C446.050422,218.446447 451.298975,224.207095 450.983705,230.997572 C450.668434,237.788049 444.908697,243.037601 438.118165,242.723507 C431.327633,242.409414 426.077084,236.650586 426.39,229.86 Z" id="Path" fill="#12A641"></path>
                <path d="M448.34,313.18 C450.999688,318.357983 456.922786,320.965149 462.537663,319.429378 C468.152541,317.893607 471.924142,312.634764 471.578189,306.823932 C471.232236,301.013101 466.863311,296.23891 461.105876,295.380199 C455.348441,294.521488 449.776527,297.81302 447.75,303.27 L455.44,309.53 L446.98,307.53 C446.973187,309.495203 447.439667,311.433154 448.34,313.18 Z" id="Path" fill="#12A641"></path>
                <path d="M454.42,289.28 C460.676844,289.580885 466.161907,285.135191 467.163054,278.951637 C468.1642,272.768084 464.36214,266.81876 458.33,265.13 L458.39,270.2 L455.6,264.68 C448.809684,264.345937 443.034199,269.579691 442.7,276.37 C442.62974,277.79022 442.809124,279.211757 443.23,280.57 C444.742667,285.547635 449.223354,289.035284 454.42,289.28 Z" id="Path" fill="#12A641"></path>
                <path d="M424.54,269.37 C429.773809,269.636546 434.60258,266.560284 436.572917,261.704198 C438.543254,256.848111 437.223133,251.276962 433.283282,247.821334 C429.34343,244.365705 423.647711,243.78329 419.09,246.37 L421.27,252.37 L416.79,248.08 C414.376449,250.266505 412.936404,253.326602 412.79,256.58 C412.730478,257.719014 412.834877,258.860673 413.1,259.97 C414.389146,265.304687 419.056589,269.139823 424.54,269.37 Z" id="Path" fill="#12A641"></path>
                <path d="M428.05,233.14 C430.89,233.45 433.65,234.33 436.5,234.51 C439.35,234.69 442.5,234 444.29,231.79 C445.123909,230.502005 445.881866,229.166397 446.56,227.79 C447.341167,226.576059 448.409288,225.573192 449.67,224.87 C451.848521,229.130701 451.360442,234.267813 448.41852,238.042018 C445.476598,241.816223 440.61402,243.543496 435.95043,242.4709 C431.28684,241.398305 427.667455,237.720237 426.67,233.04 C427.12,233.05 427.58,233.09 428.05,233.14 Z" id="Path" fill="#000000" opacity="0.1"></path>
                <path d="M424.54,269.37 C428.85529,269.568468 432.959287,267.492281 435.355981,263.898263 C437.752676,260.304244 438.091901,255.717495 436.25,251.81 C435.271152,252.469018 434.429018,253.311152 433.77,254.29 C433.034544,255.691861 432.219893,257.050725 431.33,258.36 C429.42,260.61 426.14,261.36 423.17,261.21 C420.2,261.06 417.33,260.21 414.37,259.96 C413.96,259.96 413.54,259.9 413.13,259.89 C414.385428,265.246001 419.044648,269.117115 424.54,269.37 Z" id="Path" fill="#000000" opacity="0.1"></path>
                <path d="M454.42,289.28 C458.693401,289.485886 462.766786,287.456384 465.176119,283.920927 C467.585453,280.38547 467.984561,275.852032 466.23,271.95 C465.216555,272.615836 464.335052,273.463435 463.63,274.45 C462.823656,275.885401 461.93206,277.271216 460.96,278.6 C458.88,280.91 455.39,281.73 452.24,281.6 C449.09,281.47 446.24,280.79 443.24,280.6 C444.761878,285.562482 449.235162,289.035479 454.42,289.28 Z" id="Path" fill="#000000" opacity="0.1"></path>
                <path d="M448.34,313.18 C451.339725,318.962669 458.325349,321.407112 464.276109,318.756439 C470.226869,316.105766 473.082245,309.277805 470.79,303.18 C469.771622,303.839969 468.86095,304.652829 468.09,305.59 C466.92,307.01 466.09,308.59 464.79,309.96 C462.27,312.43 458.21,313.45 454.59,313.54 C452.501454,313.541101 450.414607,313.420898 448.34,313.18 Z" id="Path" fill="#000000" opacity="0.1"></path>
                <circle id="Oval" fill="#3F3D56" cx="779.73" cy="239.18" r="99.96"></circle>
                <path d="M822.64,264.96 C819.16,261.48 810.79,256.23 806.64,254.27 C801.85,251.97 800.09,252.01 796.7,254.46 C793.88,256.46 792.05,258.39 788.81,257.68 C785.57,256.97 779.15,252.13 772.94,245.94 C766.73,239.75 761.91,233.37 761.22,230.08 C760.53,226.79 762.43,225 764.45,222.18 C766.89,218.79 766.96,217.03 764.64,212.24 C762.64,208.09 757.45,199.74 753.94,196.24 C750.43,192.74 749.67,193.51 747.75,194.24 C745.774036,195.068316 743.87642,196.072346 742.08,197.24 C738.6,199.57 736.65,201.51 735.28,204.43 C733.91,207.35 732.36,212.77 740.33,226.96 C746.209416,237.81536 753.656034,247.745307 762.43,256.43 C771.1443,265.223955 781.108225,272.684263 792,278.57 C806.18,286.57 811.61,284.98 814.53,283.62 C817.45,282.26 819.39,280.33 821.71,276.82 C822.879866,275.024881 823.884004,273.127061 824.71,271.15 C825.37,269.23 826.15,268.45 822.64,264.96 Z" id="Path" fill="#12A641"></path>
                <path d="M779.73,139.23 C739.274683,139.209777 702.79255,163.56658 687.301627,200.938554 C671.810704,238.310528 680.363101,281.334433 708.969334,309.940666 C737.575567,338.546899 780.599472,347.099296 817.971446,331.608373 C855.34342,316.11745 879.700223,279.635317 879.68,239.18 C879.652412,183.990571 834.919429,139.257588 779.73,139.23 Z M779.73,325.85 C731.863481,325.85 693.06,287.046519 693.06,239.18 C693.06,191.313481 731.863481,152.51 779.73,152.51 C827.596519,152.51 866.4,191.313481 866.4,239.18 C866.4,262.166313 857.268723,284.211167 841.014945,300.464945 C824.761167,316.718723 802.716313,325.85 779.73,325.85 Z" id="Shape" fill="#000000" fill-rule="nonzero" opacity="0.1"></path>
                <circle id="Oval" fill="#3F3D56" cx="550.08" cy="391.01" r="99.96"></circle>
                <path d="M606.93,360.81 L577,391.26 C576.893642,391.361858 576.833497,391.502735 576.833497,391.65 C576.833497,391.797265 576.893642,391.938142 577,392.04 L598,414.37 C599.027167,415.404947 599.333116,416.955138 598.77617,418.302728 C598.219225,419.650319 596.908125,420.5322 595.45,420.54 C594.490296,420.537962 593.570229,420.156996 592.89,419.48 L572,397.23 C571.778117,397.011438 571.421883,397.011438 571.2,397.23 L566.11,402.37 C561.899878,406.675409 556.131767,409.101621 550.11,409.1 C543.974578,409.071527 538.108135,406.577928 533.83,402.18 L528.94,397.18 C528.718117,396.961438 528.361883,396.961438 528.14,397.18 L507.3,419.38 C506.622804,420.058442 505.703581,420.439691 504.745,420.439691 C503.786419,420.439691 502.867196,420.058442 502.19,419.38 C501.50909,418.704118 501.126134,417.784403 501.126134,416.825 C501.126134,415.865597 501.50909,414.945882 502.19,414.27 L523.11,391.99 C523.302053,391.765466 523.302053,391.434534 523.11,391.21 L493.18,360.76 C493.022665,360.601775 492.785326,360.554289 492.579225,360.639798 C492.373124,360.725308 492.239112,360.926866 492.24,361.15 L492.24,422.08 C492.256462,426.982976 496.227024,430.953538 501.13,430.97 L599,430.97 C603.902976,430.953538 607.873538,426.982976 607.89,422.08 L607.89,361.2 C607.900141,360.967631 607.763017,360.754005 607.54753,360.666464 C607.332044,360.578922 607.084786,360.636394 606.93,360.81 Z" id="Path" fill="#12A641"></path>
                <path d="M550.08,401.87 C554.179105,401.910204 558.119313,400.286492 561,397.37 L604.59,353 C603.04263,351.718208 601.099282,351.011536 599.09,351 L501.15,351 C499.139829,351.006553 497.194851,351.713818 495.65,353 L539.25,397.37 C542.104965,400.269804 546.010704,401.892687 550.08,401.87 Z" id="Path" fill="#12A641"></path>
                <path d="M548.82,291.06 C508.364683,291.039777 471.88255,315.39658 456.391627,352.768554 C440.900704,390.140528 449.453101,433.164433 478.059334,461.770666 C506.665567,490.376899 549.689472,498.929296 587.061446,483.438373 C624.43342,467.94745 648.790223,431.465317 648.77,391.01 C648.742412,335.820571 604.009429,291.087588 548.82,291.06 Z M548.82,477.68 C500.953481,477.68 462.15,438.876519 462.15,391.01 C462.15,343.143481 500.953481,304.34 548.82,304.34 C596.686519,304.34 635.49,343.143481 635.49,391.01 C635.49,413.996313 626.358723,436.041167 610.104945,452.294945 C593.851167,468.548723 571.806313,477.68 548.82,477.68 Z" id="Shape" fill="#000000" fill-rule="nonzero" opacity="0.1"></path>
                <circle id="Oval" fill="#3F3D56" cx="312.85" cy="316.36" r="99.96"></circle>
                <polygon id="Path" fill="#12A641" points="312.85 268.53 273 360.47 276.72 364.19 312.86 348.25 349 364.19 352.72 360.47"></polygon>
                <path d="M312.85,216.37 C272.399232,216.349775 235.92026,240.701165 220.426405,278.066999 C204.93255,315.432832 213.475779,358.452813 242.071642,387.062981 C270.667505,415.673149 313.683208,424.237893 351.056786,408.762727 C388.430364,393.287561 412.799995,356.820773 412.8,316.37 C412.800007,261.161045 368.058948,216.397604 312.85,216.37 Z M312.85,402.99 C277.790708,402.989994 246.184523,381.868113 232.772588,349.475614 C219.360654,317.083116 226.78494,279.800884 251.582755,255.017375 C276.38057,230.233866 313.66708,222.831096 346.051833,236.26172 C378.436586,249.692345 399.540226,281.310714 399.52,316.37 C399.514478,364.232614 360.712614,403.03 312.85,403.03 L312.85,402.99 Z" id="Shape" fill="#000000" fill-rule="nonzero" opacity="0.1"></path>
                <path d="M836.39,415.37 C839,410.54 836.04,404.61 832.63,400.3 C829.22,395.99 825.08,391.51 825.17,386.01 C825.29,378.12 833.67,373.46 840.37,369.27 C845.336827,366.157259 849.915674,362.464641 854.01,358.27 C855.730366,356.662752 857.152345,354.763395 858.21,352.66 C859.59,349.57 859.55,346.06 859.47,342.66 C859.176667,331.393333 858.62,320.14 857.8,308.9" id="Path" stroke="#3F3D56" stroke-width="4"></path>
                <path d="M870.52,308.3 C870.326224,304.112784 868.011718,300.313073 864.38,298.22 L861.62,303.67 L861.7,297.07 C860.387542,296.678245 859.018017,296.51255 857.65,296.58 C852.676192,296.811978 848.331944,300.017426 846.643167,304.701507 C844.954389,309.385587 846.253698,314.625739 849.93517,317.978252 C853.616641,321.330765 858.955185,322.135341 863.461208,320.01677 C867.96723,317.898199 870.75324,313.273749 870.52,308.3 Z" id="Path" fill="#12A641"></path>
                <path d="M848.57,391.63 C845.908795,396.806052 839.986215,399.411065 834.372573,397.874656 C828.758931,396.338247 824.98838,391.080301 825.333924,385.27047 C825.679468,379.46064 830.046674,374.686694 835.802855,373.826514 C841.559036,372.966334 847.131086,376.254999 849.16,381.71 L841.47,387.97 L849.93,385.97 C849.938421,387.938582 849.471895,389.880152 848.57,391.63 Z" id="Path" fill="#12A641"></path>
                <path d="M842.49,367.72 C836.233156,368.020885 830.748093,363.575191 829.746946,357.391637 C828.7458,351.208084 832.54786,345.25876 838.58,343.57 L838.52,348.64 L841.31,343.13 C848.101723,342.819017 853.861522,348.068624 854.18,354.86 C854.33477,358.121418 853.186441,361.310546 850.988052,363.724648 C848.789663,366.138749 845.721627,367.579707 842.46,367.73 L842.49,367.72 Z" id="Path" fill="#12A641"></path>
                <path d="M872.37,347.84 C867.136191,348.106546 862.30742,345.030284 860.337083,340.174198 C858.366746,335.318111 859.686867,329.746962 863.626718,326.291334 C867.56657,322.835705 873.262289,322.25329 877.82,324.84 L875.64,330.84 L880.12,326.54 C882.530825,328.728523 883.970304,331.787416 884.12,335.04 C884.179939,336.179022 884.075534,337.320741 883.81,338.43 C882.521665,343.766758 877.855044,347.605299 872.37,347.84 Z" id="Path" fill="#12A641"></path>
                <path d="M868.87,311.58 C866.03,311.9 863.26,312.78 860.41,312.96 C857.56,313.14 854.41,312.45 852.62,310.23 C851.783681,308.943469 851.025641,307.607715 850.35,306.23 C849.569749,305.018846 848.505608,304.016494 847.25,303.31 C845.071479,307.570701 845.559558,312.707813 848.50148,316.482018 C851.443402,320.256223 856.30598,321.983496 860.96957,320.9109 C865.63316,319.838305 869.252545,316.160237 870.25,311.48 C869.79,311.5 869.33,311.53 868.87,311.58 Z" id="Path" fill="#000000" opacity="0.1"></path>
                <path d="M872.37,347.84 C868.05471,348.038468 863.950713,345.962281 861.554019,342.368263 C859.157324,338.774244 858.818099,334.187495 860.66,330.28 C861.63855,330.935292 862.480759,331.774105 863.14,332.75 C863.870969,334.154375 864.685775,335.513498 865.58,336.82 C867.49,339.08 870.77,339.82 873.74,339.68 C876.71,339.54 879.58,338.68 882.54,338.43 C882.95,338.43 883.37,338.36 883.78,338.35 C882.525384,343.708079 877.866982,347.582595 872.37,347.84 Z" id="Path" fill="#000000" opacity="0.1"></path>
                <path d="M842.49,367.72 C838.211126,367.929368 834.131555,365.897327 831.720948,362.355919 C829.310341,358.814511 828.916006,354.273962 830.68,350.37 C831.688972,351.041424 832.569539,351.888124 833.28,352.87 C834.28,354.22 834.83,355.78 835.95,357.02 C838.03,359.34 841.52,360.15 844.67,360.08 C847.82,360.01 850.67,359.26 853.67,359.03 C852.149036,363.994657 847.676444,367.471117 842.49,367.72 Z" id="Path" fill="#000000" opacity="0.1"></path>
                <path d="M848.57,391.63 C845.524235,397.328137 838.593873,399.70531 832.691841,397.076343 C826.789809,394.447375 823.921388,387.705488 826.12,381.63 C827.1361,382.292949 828.046347,383.105429 828.82,384.04 C830,385.47 830.77,387.04 832.12,388.42 C834.64,390.89 838.7,391.9 842.32,392 C844.40874,391.997781 846.495588,391.87424 848.57,391.63 Z" id="Path" fill="#000000" opacity="0.1"></path>
                <path d="M995.39,567.37 C998,562.54 995.04,556.61 991.63,552.3 C988.22,547.99 984.08,543.51 984.17,538.01 C984.29,530.12 992.67,525.46 999.37,521.27 C1004.33683,518.157259 1008.91567,514.464641 1013.01,510.27 C1014.73037,508.662752 1016.15234,506.763395 1017.21,504.66 C1018.59,501.57 1018.55,498.06 1018.47,494.66 C1018.18333,483.393333 1017.62667,472.14 1016.8,460.9" id="Path" stroke="#3F3D56" stroke-width="4"></path>
                <path d="M1029.52,460.3 C1029.32622,456.112784 1027.01172,452.313073 1023.38,450.22 L1020.62,455.67 L1020.7,449.07 C1019.40351,448.683849 1018.05136,448.518212 1016.7,448.58 C1011.72619,448.811978 1007.38194,452.017426 1005.69317,456.701507 C1004.00439,461.385587 1005.3037,466.625739 1008.98517,469.978252 C1012.66664,473.330765 1018.00519,474.135341 1022.51121,472.01677 C1027.01723,469.898199 1029.80324,465.273749 1029.57,460.3 L1029.52,460.3 Z" id="Path" fill="#12A641"></path>
                <path d="M1007.57,543.63 C1004.9088,548.806052 998.986215,551.411065 993.372573,549.874656 C987.758931,548.338247 983.98838,543.080301 984.333924,537.27047 C984.679468,531.46064 989.046674,526.686694 994.802855,525.826514 C1000.55904,524.966334 1006.13109,528.254999 1008.16,533.71 L1000.47,539.97 L1008.93,537.97 C1008.93842,539.938582 1008.4719,541.880152 1007.57,543.63 Z" id="Path" fill="#12A641"></path>
                <path d="M1001.49,519.72 C995.233156,520.020885 989.748093,515.575191 988.746946,509.391637 C987.7458,503.208084 991.54786,497.25876 997.58,495.57 L997.52,500.64 L1000.31,495.13 C1007.10172,494.819017 1012.86152,500.068624 1013.18,506.86 C1013.33477,510.121418 1012.18644,513.310546 1009.98805,515.724648 C1007.78966,518.138749 1004.72163,519.579707 1001.46,519.73 L1001.49,519.72 Z" id="Path" fill="#12A641"></path>
                <path d="M1031.37,499.84 C1026.13619,500.106546 1021.30742,497.030284 1019.33708,492.174198 C1017.36675,487.318111 1018.68687,481.746962 1022.62672,478.291334 C1026.56657,474.835705 1032.26229,474.25329 1036.82,476.84 L1034.64,482.84 L1039.12,478.54 C1041.53082,480.728523 1042.9703,483.787416 1043.12,487.04 C1043.17994,488.179022 1043.07553,489.320741 1042.81,490.43 C1041.52167,495.766758 1036.85504,499.605299 1031.37,499.84 Z" id="Path" fill="#12A641"></path>
                <path d="M1027.87,463.58 C1025.03,463.9 1022.26,464.78 1019.41,464.96 C1016.56,465.14 1013.41,464.45 1011.62,462.23 C1010.78368,460.943469 1010.02564,459.607715 1009.35,458.23 C1008.56975,457.018846 1007.50561,456.016494 1006.25,455.31 C1004.07148,459.570701 1004.55956,464.707813 1007.50148,468.482018 C1010.4434,472.256223 1015.30598,473.983496 1019.96957,472.9109 C1024.63316,471.838305 1028.25254,468.160237 1029.25,463.48 C1028.79,463.5 1028.33,463.53 1027.87,463.58 Z" id="Path" fill="#000000" opacity="0.1"></path>
                <path d="M1031.37,499.84 C1027.05471,500.038468 1022.95071,497.962281 1020.55402,494.368263 C1018.15732,490.774244 1017.8181,486.187495 1019.66,482.28 C1020.63855,482.935292 1021.48076,483.774105 1022.14,484.75 C1022.87097,486.154375 1023.68577,487.513498 1024.58,488.82 C1026.49,491.08 1029.77,491.82 1032.74,491.68 C1035.71,491.54 1038.58,490.68 1041.54,490.43 C1041.95,490.43 1042.37,490.36 1042.78,490.35 C1041.52538,495.708079 1036.86698,499.582595 1031.37,499.84 Z" id="Path" fill="#000000" opacity="0.1"></path>
                <path d="M1001.49,519.72 C997.211126,519.929368 993.131555,517.897327 990.720948,514.355919 C988.310341,510.814511 987.916006,506.273962 989.68,502.37 C990.688972,503.041424 991.569539,503.888124 992.28,504.87 C993.28,506.22 993.83,507.78 994.95,509.02 C997.03,511.34 1000.52,512.15 1003.67,512.08 C1006.82,512.01 1009.67,511.26 1012.67,511.03 C1011.14904,515.994657 1006.67644,519.471117 1001.49,519.72 Z" id="Path" fill="#000000" opacity="0.1"></path>
                <path d="M1007.57,543.63 C1004.52424,549.328137 997.593873,551.70531 991.691841,549.076343 C985.789809,546.447375 982.921388,539.705488 985.12,533.63 C986.1361,534.292949 987.046347,535.105429 987.82,536.04 C989,537.47 989.82,539.04 991.12,540.42 C993.64,542.89 997.7,543.9 1001.32,544 C1003.40874,543.997781 1005.49559,543.87424 1007.57,543.63 Z" id="Path" fill="#000000" opacity="0.1"></path>
            </g>
        </g>
    </g>
</svg>