<?xml version="1.0" ?><!DOCTYPE svg  PUBLIC '-//W3C//DTD SVG 1.1//EN'  'http://www.w3.org/Graphics/SVG/1.1/DTD/svg11.dtd'><svg height="512px" style="enable-background:new 0 0 512 512;" version="1.1" viewBox="0 0 512 512" width="512px" xml:space="preserve" xmlns="http://www.w3.org/2000/svg" xmlns:xlink="http://www.w3.org/1999/xlink"><g id="_x36_2-instagram"><g><path d="M258.26,200.188c-28.903,0-52.433,23.494-52.433,52.402c0,28.882,23.529,52.397,52.433,52.397    s52.436-23.516,52.436-52.397C310.695,223.683,287.163,200.188,258.26,200.188z"/><path d="M321.186,116H195.338C154.857,116,121,149.26,121,189.706v125.762C121,355.917,154.857,389,195.338,389h125.848    C361.662,389,395,355.917,395,315.468V189.706C395,149.26,361.662,116,321.186,116z M258.26,336.427    c-46.332,0-83.897-37.538-83.897-83.836c0-46.304,37.565-83.843,83.897-83.843c46.334,0,83.897,37.539,83.897,83.843    C342.157,298.889,304.594,336.427,258.26,336.427z M348.451,173.633c-6.176,0-11.183-5.004-11.183-11.174    c0-6.169,5.007-11.171,11.183-11.171c6.169,0,11.176,5.002,11.176,11.171C359.627,168.629,354.62,173.633,348.451,173.633z"/><path d="M376,16H136C69.726,16,16,69.726,16,136v240c0,66.274,53.726,120,120,120h240c66.274,0,120-53.726,120-120V136    C496,69.726,442.274,16,376,16z M427,315.468C427,373.335,379.094,421,321.186,421H195.338C137.43,421,91,373.335,91,315.468    V189.706C91,131.843,137.43,85,195.338,85h125.848C379.094,85,427,131.843,427,189.706V315.468z"/></g></g><g id="Layer_1"/></svg>