<?xml version="1.0" encoding="UTF-8"?>
<svg width="48px" height="61px" viewBox="0 0 48 61" version="1.1" xmlns="http://www.w3.org/2000/svg" xmlns:xlink="http://www.w3.org/1999/xlink">
    <!-- Generator: Sketch 52.5 (67469) - http://www.bohemiancoding.com/sketch -->
    <title>reliable</title>
    <desc>Created with Sketch.</desc>
    <g id="Page-1" stroke="none" stroke-width="1" fill="none" fill-rule="evenodd">
        <g id="reliable">
            <path d="M47.7,7.3 C42.4,2.2 35.1,0 24,0 C12.9,0 5.6,2.2 0.3,7.3 L0,7.6 L0,28.2 L0,30 C0,43.7 9.5,55.9 23.7,60.3 L24,60.4 L24.3,60.3 C38.5,55.9 48,43.7 48,30 L48,7.6 L47.7,7.3 Z" id="Path" fill="#394051"></path>
            <path d="M41.8,10.5 C37.9,7.5 32.2,6.2 24,6.2 L24,54 L24.2,53.9 C35,49.9 42,40.5 42,30 L42,10.6 L41.8,10.5 Z" id="Path" fill="#E0E2E4"></path>
            <path d="M6.2,10.5 L6,10.6 L6,30 C6,40.5 13,49.9 23.8,53.9 L24,54 L24,6.2 C15.8,6.2 10.1,7.5 6.2,10.5 Z" id="Path" fill="#F8FAFC"></path>
            <polygon id="Path" fill="#00B085" points="22.4 41.2 12.4 27.2 15.6 24.8 23.5 35.9 32.2 15.2 35.8 16.8 25.8 40.8"></polygon>
        </g>
    </g>
</svg>