<?xml version="1.0" encoding="UTF-8"?>
<svg width="986px" height="747px" viewBox="0 0 986 747" version="1.1" xmlns="http://www.w3.org/2000/svg" xmlns:xlink="http://www.w3.org/1999/xlink">
    <!-- Generator: Sketch 52.5 (67469) - http://www.bohemiancoding.com/sketch -->
    <title>undraw_online_shopping_ga73 2</title>
    <desc>Created with Sketch.</desc>
    <defs>
        <linearGradient x1="50%" y1="100%" x2="50%" y2="0%" id="linearGradient-1">
            <stop stop-color="#808080" stop-opacity="0.25" offset="0%"></stop>
            <stop stop-color="#808080" stop-opacity="0.12" offset="54%"></stop>
            <stop stop-color="#808080" stop-opacity="0.1" offset="100%"></stop>
        </linearGradient>
    </defs>
    <g id="Page-1" stroke="none" stroke-width="1" fill="none" fill-rule="evenodd">
        <g id="Desktop-HD" transform="translate(-273.000000, -1192.000000)">
            <g id="undraw_online_shopping_ga73-2" transform="translate(273.000000, 1192.000000)">
                <g id="undraw_online_shopping_ga73">
                    <path d="M607.08,126.32 C564.8,153.06 509.96,151.32 461.91,137.42 C413.86,123.52 369.71,98.73 322.91,81.12 C283.597808,66.3486796 242.552615,56.6830793 200.78,52.36 C141.11,46.19 74.48,53.7 32.9,96.93 C-13.4,145.08 -9.85,231.93 40.23,276.11 C65.7,298.59 99.06,309.62 128.15,327.17 C157.24,344.72 184.15,373.87 181.68,407.75 C179.39,439.11 152.73,463.18 125.14,478.28 C103.81,489.95 77.54,502.69 74.97,526.86 C72.49,550.25 94.57,568.58 115.66,579 C184.46,613 269.22,612.67 337.75,578.14 C362.2,565.82 384.68,549.44 410.32,539.84 C477.65,514.63 551.83,540.01 623.12,549.29 C683.653779,557.127821 745.135185,553.082277 804.12,537.38 C839.42,527.96 874.86,513.56 899.66,486.73 C917.54,467.38 928.66,442.9 939.15,418.73 C950.303333,392.943333 961.023333,366.976667 971.31,340.83 C977.49,325.13 983.57,309.13 985.16,292.33 C988.05,261.9 975.88,231.82 959.29,206.13 C919.89,145.14 853.58,102.26 781.78,91.37 C709.98,80.48 633.99,101.77 578.29,148.3" id="Path" fill="#12A641" opacity="0.1"></path>
                    <ellipse id="Oval" fill="#12A641" opacity="0.1" cx="508.99" cy="701.56" rx="284.54" ry="26.54"></ellipse>
                    <path d="M702.13,512.6 C702.13,512.6 742.02,441.94 802.13,421.6 C827.34,413.05 849.35,396.98 864.4,375.02 C871.522281,364.580208 877.674584,353.510748 882.78,341.95" id="Path" stroke="#535461" stroke-width="2"></path>
                    <path d="M920.51,328.89 C913.66,335.53 881.78,342.4 881.78,342.4 C881.78,342.4 889.61,310.75 896.45,304.1 C903.295569,297.456014 914.231014,297.619431 920.875,304.465 C927.518986,311.310569 927.355569,322.246014 920.51,328.89 Z" id="Path" fill="#12A641"></path>
                    <path d="M902.48,386.18 C893.12,388.03 862.63,376.47 862.63,376.47 C862.63,376.47 886.4,354.15 895.75,352.29 C901.865398,350.936253 908.234579,352.997695 912.397017,357.677956 C916.559455,362.358217 917.863406,368.924473 915.805131,374.840065 C913.746857,380.755658 908.648636,385.094339 902.48,386.18 Z" id="Path" fill="#12A641"></path>
                    <path d="M836.78,448.17 C827.78,445.05 807.28,419.68 807.28,419.68 C807.28,419.68 839.07,412.4 848.08,415.52 C854.054305,417.429187 858.525073,422.42565 859.761081,428.574601 C860.99709,434.723551 858.804259,441.059473 854.031723,445.128897 C849.259187,449.19832 842.656335,450.362259 836.78,448.17 Z" id="Path" fill="#12A641"></path>
                    <path d="M776.57,483.88 C767.16,482.33 742.68,460.77 742.68,460.77 C742.68,460.77 772.78,448.23 782.19,449.77 C788.277806,450.773916 793.367587,454.949379 795.542073,460.723531 C797.716559,466.497684 796.645393,472.993295 792.732073,477.763532 C788.818753,482.533768 782.657806,484.853917 776.57,483.85 L776.57,483.88 Z" id="Path" fill="#12A641"></path>
                    <path d="M836.04,351.77 C836.04,361.31 853.3,388.98 853.3,388.98 C853.3,388.98 870.58,361.32 870.59,351.78 C870.364332,342.401174 862.69654,334.915662 853.315,334.915662 C843.93346,334.915662 836.265668,342.401174 836.04,351.78 L836.04,351.77 Z" id="Path" fill="#12A641"></path>
                    <path d="M766.12,394.4 C768.97,403.5 793.71,424.74 793.71,424.74 C793.71,424.74 801.93,393.18 799.08,384.08 C796.230211,374.967302 786.532698,369.890211 777.42,372.74 C768.307302,375.589789 763.230211,385.287302 766.08,394.4 L766.12,394.4 Z" id="Path" fill="#12A641"></path>
                    <path d="M703.84,445.19 C705.11,454.65 725.92,479.76 725.92,479.76 C725.92,479.76 739.35,450.05 738.08,440.59 C736.809745,431.134885 728.115115,424.499745 718.66,425.77 C709.204885,427.040255 702.569745,435.734885 703.84,445.19 Z" id="Path" fill="#12A641"></path>
                    <path d="M920.51,328.89 C913.66,335.53 881.78,342.4 881.78,342.4 C881.78,342.4 889.61,310.75 896.45,304.1 C903.295569,297.456014 914.231014,297.619431 920.875,304.465 C927.518986,311.310569 927.355569,322.246014 920.51,328.89 Z" id="Path" fill="#000000" opacity="0.25"></path>
                    <path d="M902.48,386.18 C893.12,388.03 862.63,376.47 862.63,376.47 C862.63,376.47 886.4,354.15 895.75,352.29 C901.865398,350.936253 908.234579,352.997695 912.397017,357.677956 C916.559455,362.358217 917.863406,368.924473 915.805131,374.840065 C913.746857,380.755658 908.648636,385.094339 902.48,386.18 Z" id="Path" fill="#000000" opacity="0.25"></path>
                    <path d="M836.78,448.17 C827.78,445.05 807.28,419.68 807.28,419.68 C807.28,419.68 839.07,412.4 848.08,415.52 C854.054305,417.429187 858.525073,422.42565 859.761081,428.574601 C860.99709,434.723551 858.804259,441.059473 854.031723,445.128897 C849.259187,449.19832 842.656335,450.362259 836.78,448.17 Z" id="Path" fill="#000000" opacity="0.25"></path>
                    <path d="M776.57,483.88 C767.16,482.33 742.68,460.77 742.68,460.77 C742.68,460.77 772.78,448.23 782.19,449.77 C788.277806,450.773916 793.367587,454.949379 795.542073,460.723531 C797.716559,466.497684 796.645393,472.993295 792.732073,477.763532 C788.818753,482.533768 782.657806,484.853917 776.57,483.85 L776.57,483.88 Z" id="Path" fill="#000000" opacity="0.25"></path>
                    <path d="M836.04,351.77 C836.04,361.31 853.3,388.98 853.3,388.98 C853.3,388.98 870.58,361.32 870.59,351.78 C870.364332,342.401174 862.69654,334.915662 853.315,334.915662 C843.93346,334.915662 836.265668,342.401174 836.04,351.78 L836.04,351.77 Z" id="Path" fill="#000000" opacity="0.25"></path>
                    <path d="M766.12,394.4 C768.97,403.5 793.71,424.74 793.71,424.74 C793.71,424.74 801.93,393.18 799.08,384.08 C796.230211,374.967302 786.532698,369.890211 777.42,372.74 C768.307302,375.589789 763.230211,385.287302 766.08,394.4 L766.12,394.4 Z" id="Path" fill="#000000" opacity="0.25"></path>
                    <path d="M703.84,445.19 C705.11,454.65 725.92,479.76 725.92,479.76 C725.92,479.76 739.35,450.05 738.08,440.59 C736.809745,431.134885 728.115115,424.499745 718.66,425.77 C709.204885,427.040255 702.569745,435.734885 703.84,445.19 Z" id="Path" fill="#000000" opacity="0.25"></path>
                    <path d="M704.43,511.19 C704.43,511.19 712.26,430.43 758.92,387.48 C778.607666,369.584573 791.962109,345.787979 796.98,319.66 C799.259934,307.236688 800.398015,294.630774 800.380211,282" id="Path" stroke="#535461" stroke-width="2"></path>
                    <path d="M829.63,254.77 C826.06,263.62 799.7,282.77 799.7,282.77 C799.7,282.77 794.02,250.66 797.59,241.77 C801.423538,233.362439 811.19577,229.461958 819.764975,232.919096 C828.334181,236.376235 832.663945,245.965991 829.59,254.68 L829.63,254.77 Z" id="Path" fill="#12A641"></path>
                    <path d="M836.35,314.43 C828.55,319.92 795.99,321.71 795.99,321.71 C795.99,321.71 808.68,291.71 816.48,286.18 C824.28035,280.815363 834.945632,282.730592 840.392084,290.474038 C845.838537,298.217484 844.035684,308.902336 836.35,314.43 Z" id="Path" fill="#12A641"></path>
                    <path d="M801.44,397.71 C791.94,398.51 762.93,383.62 762.93,383.62 C762.93,383.62 789.04,364.09 798.55,363.29 C804.698541,362.773751 810.655442,365.576925 814.176797,370.643593 C817.698152,375.710261 818.248983,382.270676 815.621797,387.853593 C812.994611,393.43651 807.588541,397.193751 801.44,397.71 Z" id="Path" fill="#12A641"></path>
                    <path d="M760.84,454.77 C751.61,457.16 720.5,447.39 720.5,447.39 C720.5,447.39 742.94,423.72 752.17,421.33 C761.404201,418.935846 770.830846,424.480799 773.225,433.715 C775.619154,442.949201 770.074201,452.375846 760.84,454.77 Z" id="Path" fill="#12A641"></path>
                    <path d="M761.66,309.87 C765.53,318.59 792.52,336.87 792.52,336.87 C792.52,336.87 797.11,304.59 793.25,295.87 C789.384007,287.146663 779.178338,283.209007 770.455,287.075 C761.731663,290.940994 757.794007,301.146662 761.66,309.87 Z" id="Path" fill="#12A641"></path>
                    <path d="M715.02,377.21 C721.32,384.37 752.55,393.76 752.55,393.76 C752.55,393.76 747.27,361.58 740.98,354.41 C734.683954,347.230299 723.759702,346.513955 716.580001,352.810001 C709.400299,359.106047 708.683954,370.030298 714.98,377.21 L715.02,377.21 Z" id="Path" fill="#12A641"></path>
                    <path d="M678.67,448.88 C683.67,457.01 712.86,471.54 712.86,471.54 C712.86,471.54 713.1,438.93 708.11,430.8 C703.117346,422.670368 692.479632,420.127346 684.35,425.12 C676.220368,430.112654 673.677346,440.750368 678.67,448.88 Z" id="Path" fill="#12A641"></path>
                    <polygon id="Path" fill="url(#linearGradient-1)" points="251.84 0 251.84 27.38 251.84 705.46 759.24 705.46 759.24 27.38 759.24 0"></polygon>
                    <rect id="Rectangle" fill="#F6F7F9" x="256.29" y="6.19" width="498.5" height="26.89"></rect>
                    <g id="Group" opacity="0.2" transform="translate(256.000000, 6.000000)" fill="#12A641">
                        <rect id="Rectangle" x="0.29" y="0.19" width="498.5" height="26.89"></rect>
                    </g>
                    <rect id="Rectangle" fill="#F6F7F9" x="256.29" y="33.08" width="498.5" height="666.19"></rect>
                    <circle id="Oval" fill="#F6F7F9" cx="269.4" cy="19.63" r="4.56"></circle>
                    <circle id="Oval" fill="#F6F7F9" cx="281.76" cy="19.63" r="4.56"></circle>
                    <circle id="Oval" fill="#F6F7F9" cx="294.12" cy="19.63" r="4.56"></circle>
                    <g id="Group" opacity="0.2" transform="translate(345.000000, 74.000000)" fill="#12A641">
                        <rect id="Rectangle" x="0.26" y="0.15" width="320.55" height="12.55"></rect>
                    </g>
                    <rect id="Rectangle" fill="#12A641" x="623.22" y="74.15" width="42.59" height="12.55"></rect>
                    <g id="Group" opacity="0.2" transform="translate(299.000000, 330.000000)" fill="#12A641">
                        <rect id="Rectangle" x="0.32" y="0.62" width="201.72" height="144.49"></rect>
                    </g>
                    <g id="Group" opacity="0.2" transform="translate(299.000000, 143.000000)" fill="#12A641">
                        <rect id="Rectangle" x="0.32" y="0.19" width="201.72" height="144.49"></rect>
                    </g>
                    <g id="Group" opacity="0.2" transform="translate(299.000000, 515.000000)" fill="#12A641">
                        <rect id="Rectangle" x="0.32" y="0.61" width="201.72" height="144.49"></rect>
                    </g>
                    <g id="Group" opacity="0.2" transform="translate(510.000000, 330.000000)" fill="#12A641">
                        <rect id="Rectangle" x="0.04" y="0.62" width="201.72" height="144.49"></rect>
                    </g>
                    <g id="Group" opacity="0.2" transform="translate(510.000000, 143.000000)" fill="#12A641">
                        <rect id="Rectangle" x="0.04" y="0.19" width="201.72" height="144.49"></rect>
                    </g>
                    <g id="Group" opacity="0.2" transform="translate(510.000000, 515.000000)" fill="#12A641">
                        <rect id="Rectangle" x="0.04" y="0.61" width="201.72" height="144.49"></rect>
                    </g>
                    <path d="M561.61,171.11 C561.61,171.11 559.78,166.54 572.12,167.68 C584.46,168.82 619.89,172.76 635.21,169.31 C650.53,165.86 659.66,164.76 658.75,169.31 C657.84,173.86 632.24,184.14 632.24,184.14 L599.09,187.57 L574.64,183.68 L561.51,175.91 L561.61,171.11 Z" id="Path" fill="#12A641"></path>
                    <path d="M658.78,169.31 C657.86,173.86 632.27,184.14 632.27,184.14 L599.12,187.57 L574.67,183.69 L561.55,175.92 L561.64,171.12 C561.37907,170.309432 561.659988,169.422532 562.34,168.91 C563.47,167.91 566.11,167.13 572.15,167.69 C584.5,168.83 619.92,172.76 635.24,169.31 C647.72,166.5 656.1,165.25 658.24,167.31 C658.778146,167.824239 658.986195,168.594789 658.78,169.31 Z" id="Path" fill="#000000" opacity="0.1"></path>
                    <path d="M678.48,238.54 C657.150253,242.646269 637.035294,251.554713 619.66,264.59 C618.780668,262.251025 617.125074,260.284786 614.97,259.02 C613.498345,258.107234 611.891945,257.432276 610.21,257.02 C608.68,256.63 607.21,257.56 605.86,258.9 C604.306983,260.618524 603.004148,262.547528 601.99,264.63 C578.68,248.63 543.32,238.42 543.32,238.42 L543.32,235.22 C543.32,234.59 543.43,233.83 543.55,232.97 C543.67,232.11 543.82,231.35 544.01,230.42 C547.01,215.16 558.87,180.29 558.87,180.29 L562.54,180.29 L572.28,180.29 L598.28,185.69 L627.53,183.9 L656.99,177.77 L660.81,176.97 C667.18,181.97 674.41,216.97 677.25,231.87 C677.61,233.76 677.89,235.32 678.1,236.47 C678.35,237.77 678.48,238.54 678.48,238.54 Z" id="Path" fill="#12A641"></path>
                    <path d="M548.16,231.93 C548.93,217.28 560.57,185.53 562.54,180.26 L558.87,180.26 C558.87,180.26 546.31,217.26 543.76,231.7 C543.754365,231.73645 543.754365,231.77355 543.76,231.81 C543.69,232.2 543.62,232.58 543.57,232.94 C543.45,233.8 543.37,234.56 543.34,235.19 L543.34,238.39 C543.34,238.39 578.7,248.61 602.01,264.6 C603.024148,262.517528 604.326983,260.588524 605.88,258.87 C596.97,250.77 563.18,237.57 548.16,231.93 Z" id="Path" fill="#12A641"></path>
                    <path d="M678.1,236.43 C678.01,235.92 677.9,235.33 677.78,234.68 C677.63,233.84 677.45,232.89 677.25,231.83 C674.41,216.91 667.18,181.9 660.81,176.93 L656.99,177.73 C659.31,183.96 674.26,224.64 672.99,232.58 C647.99,237.58 622.65,253.83 614.99,259.02 C617.145074,260.284786 618.800668,262.251025 619.68,264.59 C637.055294,251.554713 657.170253,242.646269 678.5,238.54 C678.5,238.54 678.35,237.77 678.1,236.43 Z" id="Path" fill="#12A641"></path>
                    <path d="M549.08,231.01 C549.84,216.36 561.49,184.61 563.46,179.35 L559.78,179.35 C559.78,179.35 547.22,216.35 544.67,230.78 C544.67,230.78 544.67,230.86 544.67,230.89 C544.596667,231.29 544.536667,231.67 544.49,232.03 C544.37,232.89 544.29,233.65 544.26,234.28 L544.26,237.48 C544.26,237.48 579.61,247.69 602.93,263.69 C603.936118,261.605288 605.236018,259.675644 606.79,257.96 C597.88,249.88 564.1,236.65 549.08,231.01 Z" id="Path" fill="#000000" opacity="0.1"></path>
                    <path d="M548.16,231.93 C548.93,217.28 560.57,185.53 562.54,180.26 L558.87,180.26 C558.87,180.26 546.31,217.26 543.76,231.7 C543.754365,231.73645 543.754365,231.77355 543.76,231.81 C543.69,232.2 543.62,232.58 543.57,232.94 C543.45,233.8 543.37,234.56 543.34,235.19 L543.34,238.39 C543.34,238.39 578.7,248.61 602.01,264.6 C603.024148,262.517528 604.326983,260.588524 605.88,258.87 C596.97,250.77 563.18,237.57 548.16,231.93 Z" id="Path" fill="#12A641"></path>
                    <path d="M677.19,235.51 L676.87,233.76 C676.71,232.92 676.54,231.98 676.34,230.91 C673.51,216 666.27,180.99 659.9,176.01 L656.09,176.82 C658.41,183.05 673.36,223.73 672.09,231.67 C647.09,236.67 621.74,252.92 614.09,258.1 C616.245766,259.368557 617.901208,261.338144 618.78,263.68 C636.148769,250.637962 656.261321,241.725649 677.59,237.62 C677.59,237.62 677.44,236.87 677.19,235.51 Z" id="Path" fill="#000000" opacity="0.1"></path>
                    <path d="M678.1,236.43 C678.01,235.92 677.9,235.33 677.78,234.68 C677.63,233.84 677.45,232.89 677.25,231.83 C674.41,216.91 667.18,181.9 660.81,176.93 L656.99,177.73 C659.31,183.96 674.26,224.64 672.99,232.58 C647.99,237.58 622.65,253.83 614.99,259.02 C617.145074,260.284786 618.800668,262.251025 619.68,264.59 C637.055294,251.554713 657.170253,242.646269 678.5,238.54 C678.5,238.54 678.35,237.77 678.1,236.43 Z" id="Path" fill="#12A641"></path>
                    <path d="M556.85,198.34 C556.85,198.34 580.05,212.94 585.47,191.56 L590.63,192.94 C590.63,192.94 592.33,216.63 555.31,203.11 L556.85,198.34 Z" id="Path" fill="#000000" opacity="0.1"></path>
                    <path d="M556.85,196.51 C556.85,196.51 580.05,211.11 585.47,189.73 L590.63,191.11 C590.63,191.11 592.33,214.8 555.31,201.28 L556.85,196.51 Z" id="Path" fill="#12A641"></path>
                    <path d="M629.85,192.25 C629.85,192.25 632.85,209.72 664.64,201.25 L663.52,197.95 C663.52,197.95 641.81,206.95 633.94,191.32 L629.85,192.25 Z" id="Path" fill="#000000" opacity="0.1"></path>
                    <path d="M629.85,190.42 C629.85,190.42 632.85,207.89 664.64,199.42 L663.52,196.12 C663.52,196.12 641.81,205.12 633.94,189.49 L629.85,190.42 Z" id="Path" fill="#12A641"></path>
                    <path d="M608.69,192.02 L608.69,228.48 L614.33,228.48 C614.33,228.48 622.13,225.67 621.95,209.28 C621.77,192.89 620.58,188.48 620.58,188.48 L608.69,192.02 Z" id="Path" fill="#000000" opacity="0.1"></path>
                    <path d="M607.78,191.11 L607.78,227.57 L613.42,227.57 C613.42,227.57 621.22,224.76 621.04,208.37 C620.86,191.98 619.66,187.57 619.66,187.57 L607.78,191.11 Z" id="Path" fill="#12A641"></path>
                    <path d="M660.78,178.77 C658.48,183.05 637.6,190.08 633.91,191.29 L633.35,191.47 C633.35,191.47 632.03,191.81 629.82,192.27 C623.1,193.67 608.12,196.27 596.82,193.99 C595.18,193.67 593.48,193.32 591.75,192.99 L587.75,192.12 C574.75,189.23 561.3,185.45 558.91,182.12 C558.91,182.12 559.56,171.25 561.75,171.54 C563.94,171.83 588.39,182.12 588.39,182.12 L588.74,182.17 C589.37,182.25 590.8,182.43 592.81,182.66 C600.75,183.53 617.48,184.91 626.48,182.5 C626.91,182.38 627.31,182.26 627.7,182.12 C628.38,181.89 629.09,181.65 629.82,181.38 C641.4,177.28 658.74,169.94 658.74,169.94 C658.74,169.94 663.32,174.06 660.78,178.77 Z" id="Path" fill="#000000" opacity="0.1"></path>
                    <path d="M658.78,169.31 C657.86,173.86 632.27,184.14 632.27,184.14 L599.12,187.57 L574.67,183.69 L561.55,175.92 L561.64,171.12 C561.37907,170.309432 561.659988,169.422532 562.34,168.91 C566.69,170.23 588.34,179.34 588.34,179.34 L588.69,179.39 C589.32,179.47 590.75,179.65 592.76,179.88 C600.7,180.75 617.43,182.13 626.43,179.72 C626.86,179.6 627.26,179.48 627.65,179.34 C628.33,179.12 629.04,178.87 629.77,178.6 C640.24,174.89 655.43,168.53 658.24,167.35 C658.763401,167.856304 658.970247,168.607079 658.78,169.31 Z" id="Path" fill="#000000" opacity="0.1"></path>
                    <path d="M660.78,176.93 C658.48,181.21 637.6,188.23 633.91,189.44 L633.35,189.63 C633.35,189.63 632.03,189.96 629.82,190.42 C623.1,191.82 608.12,194.42 596.82,192.14 C595.18,191.82 593.48,191.47 591.75,191.14 L587.75,190.27 C574.75,187.38 561.3,183.6 558.91,180.27 C558.91,180.27 559.56,169.4 561.75,169.7 C563.94,170 588.39,180.27 588.39,180.27 L588.74,180.32 C589.37,180.4 590.8,180.59 592.81,180.81 C600.75,181.68 617.48,183.06 626.48,180.65 C626.91,180.53 627.31,180.41 627.7,180.27 C628.38,180.05 629.09,179.8 629.82,179.53 C641.4,175.43 658.74,168.09 658.74,168.09 C658.74,168.09 663.32,172.24 660.78,176.93 Z" id="Path" fill="#12A641"></path>
                    <circle id="Oval" fill="#000000" opacity="0.1" cx="612.65" cy="188.48" r="3.66"></circle>
                    <circle id="Oval" fill="#12A641" cx="612.65" cy="187.56" r="3.66"></circle>
                    <path d="M593.68,180.77 L592.68,191.09 L588.68,190.22 L589.68,180.28 C590.24,180.38 591.68,180.57 593.68,180.77 Z" id="Path" fill="#000000" opacity="0.1"></path>
                    <path d="M592.78,180.77 L591.78,191.09 L587.78,190.22 L588.78,180.28 C589.33,180.38 590.78,180.57 592.78,180.77 Z" id="Path" fill="#12A641"></path>
                    <path d="M633.02,189.44 L632.46,189.63 C632.46,189.63 631.15,189.96 628.93,190.42 L625.52,180.63 C625.95,180.51 626.36,180.39 626.75,180.25 C627.43,180.03 628.14,179.78 628.87,179.51 L633.02,189.44 Z" id="Path" fill="#000000" opacity="0.1"></path>
                    <path d="M633.94,189.44 L633.38,189.63 C633.38,189.63 632.06,189.96 629.85,190.42 L626.44,180.63 C626.87,180.51 627.27,180.39 627.66,180.25 C628.34,180.03 629.05,179.78 629.78,179.51 L633.94,189.44 Z" id="Path" fill="#12A641"></path>
                    <g id="Group" opacity="0.5" transform="translate(337.000000, 161.000000)">
                        <path d="M39.02,1.77 C43.6987164,1.80058906 48.2852546,3.07405226 52.31,5.46 C52.31,5.46 64.49,6.94 71.13,5.46 C77.77,3.98 81.13,-1.18 82.39,0.29 C83.65,1.76 83.68,15.61 83.68,15.61 L77.96,30.93 L65.04,40.52 L44.56,34.62 L37.78,17.29 L39.02,1.77 Z" id="Path" fill="#12A641"></path>
                        <path d="M83.68,15.63 L77.96,30.95 L65.04,40.54 L44.56,34.64 L37.78,17.29 L39.07,1.79 L39.37,1.79 C43.9461521,1.90642143 48.4183774,3.17928556 52.37,5.49 C52.37,5.49 64.55,6.97 71.19,5.49 C77.5,4.09 80.82,-0.65 82.19,0.15 C82.2706751,0.187638338 82.3422986,0.242208681 82.4,0.31 C83.68,1.77 83.68,15.63 83.68,15.63 Z" id="Path" fill="#000000" opacity="0.1"></path>
                        <path d="M83.68,15.63 L77.96,30.95 L65.04,40.54 L44.56,34.64 L37.78,17.29 L39.07,1.79 L39.37,1.79 C40.51,6.68 45.37,22.12 60.85,23.21 C76.77,24.32 81.29,5.38 82.23,0.16 C82.3106751,0.197638338 82.3822986,0.252208681 82.44,0.32 C83.68,1.77 83.68,15.63 83.68,15.63 Z" id="Path" fill="#000000" opacity="0.1"></path>
                        <path d="M39.02,1.77 C39.02,1.77 42.34,23.36 60.8,24.65 C79.26,25.94 82.39,0.29 82.39,0.29 C82.39,0.29 109.15,9.06 115.39,24.7 C121.63,40.34 126.28,52.89 126.28,52.89 C126.28,52.89 124.28,56.39 122.03,56.76 C119.78,57.13 104.5,67.65 104.5,67.65 C104.5,67.65 104.32,97.55 105.98,99.39 C107.64,101.23 107.09,109.17 102.1,108.8 C97.11,108.43 62.61,100.68 33.1,107.14 C33.1,107.14 20.74,111.57 21.1,104.37 C21.46,97.17 22.02,68.94 22.02,68.94 C22.02,68.94 3.38,60.82 2.28,60.82 C1.18,60.82 -1.6,59.36 1.35,54.55 C4.3,49.74 8,33.33 8,33.33 C8,33.33 15.4,9.77 39.02,1.77 Z" id="Path" fill="#12A641"></path>
                        <path d="M96.41,40.54 C96.41,40.54 101.95,44.6 100.66,47.74 C99.37,50.88 96.41,40.54 96.41,40.54 Z" id="Path" fill="#000000" opacity="0.1"></path>
                        <path d="M104.53,44.44 C104.014014,46.2404269 104.014014,48.1495731 104.53,49.95" id="Path" fill="#000000" opacity="0.1"></path>
                        <path d="M108.22,54.57 C108.22,54.57 108.96,59.57 106.75,60.1" id="Path" fill="#000000" opacity="0.1"></path>
                        <path d="M32.93,39.25 C32.93,39.25 22.6,48.25 26.1,51.8" id="Path" fill="#000000" opacity="0.1"></path>
                        <path d="M26.47,61.03 C26.47,61.03 26.3,70.44 29.15,71.18" id="Path" fill="#000000" opacity="0.1"></path>
                        <path d="M56.18,92.58 C56.18,92.58 63.18,87.79 65.04,87.97" id="Path" fill="#000000" opacity="0.1"></path>
                        <path d="M63.18,97.57 C63.18,97.57 70.76,92.21 72.79,92.57" id="Path" fill="#000000" opacity="0.1"></path>
                    </g>
                    <g id="Group" opacity="0.5" transform="translate(545.000000, 344.000000)">
                        <path d="M19.78,0.42 C19.78,0.42 80.16,3.28 110.18,1.52 L109.52,9.44 L56.4,16.44 L40.68,11.6 L19.78,0.42 Z" id="Path" fill="#12A641"></path>
                        <path d="M110.22,1.52 L109.56,9.44 L56.45,16.44 L40.72,11.6 L19.78,0.42 C19.78,0.42 21.02,0.49 23.23,0.58 C36.33,1.15 83.5,2.99 109.4,1.58 L110.22,1.52 Z" id="Path" fill="#000000" opacity="0.1"></path>
                        <path d="M131.12,114.14 C119.46,121.14 78.99,114.36 78.99,114.36 L67.77,74.36 L55.23,115.05 C37.42,121.43 0.68,112.19 0.68,112.19 L14.98,24.19 L17.45,12.06 L19.78,0.42 L42.44,7.24 C42.44,7.24 49.25,11.86 77.63,10.54 C106.01,9.22 110.18,1.54 110.18,1.54 C111.43,1.9 112.62,6.31 113.82,11.79 C115.56,19.79 117.33,30.05 119.42,33.44 C122.98,39.14 131.12,114.14 131.12,114.14 Z" id="Path" fill="#12A641"></path>
                        <path d="M113.86,12.65 C88.56,26.54 66.78,26.16 66.78,26.16 C61.39,26.82 17.45,12.93 17.45,12.93 L19.78,1.3 L42.44,8.12 C42.44,8.12 49.25,12.74 77.63,11.42 C106.01,10.1 110.18,2.42 110.18,2.42 C111.47,2.77 112.66,7.17 113.86,12.65 Z" id="Path" fill="#000000" opacity="0.1"></path>
                        <path d="M110.22,1.52 L109.56,9.44 L56.45,16.44 L40.72,11.6 L19.78,0.42 C19.78,0.42 21.02,0.49 23.23,0.58 L42.43,6.36 C42.43,6.36 49.24,10.98 77.62,9.66 C99.91,8.66 107.27,3.66 109.4,1.57 L110.22,1.52 Z" id="Path" fill="#000000" opacity="0.1"></path>
                        <path d="M113.86,11.77 C88.56,25.66 66.78,25.28 66.78,25.28 C61.39,25.94 17.45,12.05 17.45,12.05 L19.78,0.42 L42.44,7.24 C42.44,7.24 49.25,11.86 77.63,10.54 C106.01,9.22 110.18,1.54 110.18,1.54 C111.47,1.88 112.66,6.29 113.86,11.77 Z" id="Path" fill="#12A641"></path>
                        <circle id="Oval" fill="#000000" opacity="0.1" cx="71.07" cy="20.87" r="2.31"></circle>
                        <circle id="Oval" stroke="#12A641" cx="71.07" cy="19.99" r="2.31"></circle>
                        <path d="M12.01,61.35 C12.01,61.35 16.08,73.45 18.94,73.23 C21.8,73.01 12.01,61.35 12.01,61.35 Z" id="Path" fill="#000000" opacity="0.1"></path>
                        <path d="M9.37,73.23 C9.37,73.23 11.9,80.49 14.54,81.7" id="Path" fill="#000000" opacity="0.1"></path>
                        <path d="M9.37,80.82 C9.37,80.82 13.37,85.88 15.74,87.09" id="Path" fill="#000000" opacity="0.1"></path>
                        <path d="M116.78,35.07 C116.78,35.07 120.52,40.68 116.78,41.89" id="Path" fill="#000000" opacity="0.1"></path>
                        <path d="M118.48,44.19 C114.14,39.04 116.82,51.19 116.82,51.19 C116.82,51.19 119.59,45.51 118.48,44.19 Z" id="Path" fill="#000000" opacity="0.1"></path>
                        <path d="M120.67,50.46 C120.67,50.46 114.07,60.25 115.39,61.35" id="Path" fill="#000000" opacity="0.1"></path>
                        <path d="M33.36,35.28 C25.27,35.28 16.83,31.62 16.36,31.4 L16.72,30.59 C16.88,30.67 33.03,37.68 41.77,32.42 C45.07,30.42 46.92,26.9 47.28,21.92 L48.16,21.99 C47.78,27.27 45.78,30.99 42.22,33.17 C39.5135513,34.6660945 36.4502747,35.3956107 33.36,35.28 Z" id="Path" fill="#000000" opacity="0.1"></path>
                        <path d="M33.36,34.4 C25.27,34.4 16.83,30.74 16.36,30.52 L16.72,29.72 C16.88,29.79 33.03,36.8 41.77,31.54 C45.07,29.54 46.92,26.02 47.28,21.04 L48.16,21.11 C47.78,26.39 45.78,30.11 42.22,32.29 C39.5135513,33.7860945 36.4502747,34.5156107 33.36,34.4 Z" id="Path" fill="#12A641"></path>
                        <path d="M99.78,35.94 C97.7081476,35.9696091 95.6566031,35.528527 93.78,34.65 C87.22,31.49 86.16,23.75 86.11,23.42 L86.99,23.31 C86.99,23.39 88.04,30.92 94.17,33.86 C99.63,36.49 107.38,34.86 117.17,28.86 L117.62,29.61 C110.65,33.83 104.68,35.94 99.78,35.94 Z" id="Path" fill="#000000" opacity="0.1"></path>
                        <path d="M99.78,35.06 C97.7081476,35.0896091 95.6566031,34.648527 93.78,33.77 C87.22,30.61 86.16,22.87 86.11,22.54 L86.99,22.43 C86.99,22.51 88.04,30.04 94.17,32.98 C99.63,35.61 107.38,33.98 117.17,27.98 L117.62,28.73 C110.65,32.95 104.68,35.06 99.78,35.06 Z" id="Path" fill="#12A641"></path>
                    </g>
                    <path d="M381.12,345.77 C381.12,345.77 392.47,361.62 400.18,360.08 C407.89,358.54 408.65,356.85 415.5,345.77 L421.12,358.7 L414.5,374.7 L406.66,384.85 L390.04,382.24 L384.66,364.08 L381.12,345.77 Z" id="Path" fill="#12A641"></path>
                    <path d="M421.12,358.69 L414.5,374.69 L406.66,384.84 L390.04,382.23 L384.66,364.07 L381.12,345.77 C381.12,345.77 382.12,347.15 383.68,349.05 C387.49,353.6 394.74,361.16 400.18,360.05 C407.78,358.53 408.63,356.86 415.23,346.19 L415.5,345.74 L421.12,358.69 Z" id="Path" fill="#000000" opacity="0.1"></path>
                    <path d="M421.12,358.69 L414.5,374.69 L406.66,384.84 L390.04,382.23 L384.66,364.07 L381.12,345.77 C381.12,345.77 382.12,347.15 383.68,349.05 C386.16,357.05 391.49,369.88 400.18,369.77 C409.99,369.66 413.95,353.41 415.23,346.22 L415.5,345.77 L421.12,358.69 Z" id="Path" fill="#000000" opacity="0.1"></path>
                    <path d="M375.12,345.3 C375.12,345.3 371.27,344.84 373.27,349.61 C375.27,354.38 378.96,370.07 377.12,373.3 C375.28,376.53 376.2,385.3 368.2,387 L370.5,396.07 C370.5,396.07 370.96,416.07 370.04,419 C369.12,421.93 368.96,438.07 369.27,439.76 C369.58,441.45 369.43,452.53 368.2,453 C366.97,453.47 366.2,458.84 370.2,459.76 C374.2,460.68 391.27,461.15 394.35,462.07 C397.43,462.99 419.27,462.07 419.27,462.07 C419.27,462.07 428.5,460.84 430.81,460.07 C433.12,459.3 433.58,457.46 432.81,453.92 C432.04,450.38 428.5,424.69 429.27,421.46 C430.04,418.23 430.2,386.69 430.2,386.69 C430.2,386.69 424.2,384.69 424.2,378.84 C424.2,372.99 421.89,357.3 426.66,347.46 C426.66,347.46 422.81,344.82 422.2,345.29 C421.59,345.76 415.78,344.07 415.78,344.07 C415.78,344.07 412.78,370.84 400.23,370.99 C387.68,371.14 382.09,344.07 382.09,344.07 C382.09,344.07 382.2,341.61 375.12,345.3 Z" id="Path" fill="#12A641"></path>
                    <path d="M393.27,431.15 C393.27,431.15 395.86,437.46 400.18,438.38 C404.5,439.3 393.27,431.15 393.27,431.15 Z" id="Path" fill="#000000" opacity="0.1"></path>
                    <path d="M389.27,436.07 C389.27,436.07 397.63,442.84 397.27,444.23" id="Path" fill="#000000" opacity="0.1"></path>
                    <path d="M372.5,396.07 C372.5,396.07 379.12,400.53 379.12,403.76" id="Path" fill="#000000" opacity="0.1"></path>
                    <path d="M376.96,410.07 C376.96,410.07 375.12,403.61 373.89,402.23" id="Path" fill="#000000" opacity="0.1"></path>
                    <path d="M373.89,412.53 C373.89,412.53 376.66,418.07 376.96,419.61" id="Path" fill="#000000" opacity="0.1"></path>
                    <path d="M427.58,401.3 C427.58,401.3 418.97,403.92 419.73,407.15" id="Path" fill="#000000" opacity="0.1"></path>
                    <path d="M419.69,431.15 C419.69,431.15 430.97,418.07 427.58,418.38 C424.19,418.69 419.69,431.15 419.69,431.15 Z" id="Path" fill="#000000" opacity="0.1"></path>
                    <g id="Group" opacity="0.1" transform="translate(367.000000, 343.000000)" fill="#000000">
                        <path d="M57.19,35.84 C57.19,33.14 56.7,28.34 56.64,22.99 C56.58,29.13 57.19,34.81 57.19,37.84 C57.19,43.56 62.92,45.59 63.19,45.68 C63.19,44.43 63.19,43.68 63.19,43.68 C63.19,43.68 57.19,41.69 57.19,35.84 Z" id="Path"></path>
                        <path d="M65.78,112.92 C65.8974071,113.44498 65.9875279,113.975692 66.05,114.51 C66.1779232,113.306853 66.086441,112.090479 65.78,110.92 C65.12,107.92 62.44,88.66 62.16,81.14 C61.86,86.28 65.08,109.56 65.78,112.92 Z" id="Path"></path>
                        <path d="M2.13,92.97 C2.13,87.48 2.44,79.91 3.04,77.97 C3.53,76.41 3.63,70.03 3.62,64.39 C3.62,69.45 3.47,74.59 3.04,75.97 C2.36,78.15 2.1,87.53 2.13,92.97 Z" id="Path"></path>
                        <path d="M8.12,4.3 C15.19,0.61 15.04,3.07 15.04,3.07 C15.04,3.07 20.58,30.15 33.18,29.99 C45.78,29.83 48.78,3.07 48.78,3.07 C48.78,3.07 54.63,4.76 55.24,4.29 C55.85,3.82 57.9,5.29 59.03,6.01 C59.24,5.48 59.46,4.96 59.71,4.46 C59.71,4.46 55.86,1.82 55.24,2.29 C54.62,2.76 48.78,1.07 48.78,1.07 C48.78,1.07 45.78,27.84 33.23,27.99 C20.68,28.14 15.09,1.07 15.09,1.07 C15.09,1.07 15.24,-1.39 8.17,2.3 C8.17,2.3 5.04,1.94 5.91,5.39 C6.41,4.1 8.12,4.3 8.12,4.3 Z" id="Path"></path>
                        <path d="M1.19,112 C2.19,111.63 2.46,104.78 2.4,101 C2.35,104.8 2,109.69 1.19,110 C0.38,110.31 -0.01,112 0.3,113.63 C0.46,112.77 0.78,112.14 1.19,112 Z" id="Path"></path>
                        <path d="M10.12,32.3 C10.6087409,30.988648 10.7700748,29.5778346 10.59,28.19 C10.5808171,28.9182541 10.4207842,29.6366997 10.12,30.3 C8.27,33.53 9.19,42.3 1.19,44 L1.67,45.88 C9.15,43.94 8.31,35.47 10.12,32.3 Z" id="Path"></path>
                    </g>
                    <path d="M421.56,533.41 C417.78,540.29 379.41,533.41 379.41,533.41 L379.51,532.72 L380.27,527.39 L420.7,527.39 L421.47,532.71 L421.56,533.41 Z" id="Path" fill="#12A641"></path>
                    <path d="M421.56,533.41 C417.78,540.29 379.41,533.41 379.41,533.41 L379.51,532.72 C381.35,532.72 409.11,532.06 421.51,532.72 L421.56,533.41 Z" id="Path" fill="#000000" opacity="0.1"></path>
                    <path d="M379.41,533.41 C379.41,533.41 372.53,535.13 361.86,564.03 C351.19,592.93 347.41,630.27 347.41,630.27 C347.41,630.27 341.41,640.43 367.02,641.11 C367.02,641.11 364.96,647.82 379.41,646.79 C393.86,645.76 391.78,645.77 391.78,645.77 C391.78,645.77 401.07,639.92 405.2,640.95 C409.33,641.98 411.91,642.33 416.38,646.11 C420.85,649.89 435.14,648.35 435.31,645.43 C435.42485,643.995629 435.42485,642.554371 435.31,641.12 C435.31,641.12 457.16,642.5 453.03,626.67 C448.9,610.84 445.46,584.86 445.46,584.86 C445.46,584.86 434.28,534.11 421.54,533.42 C408.8,532.73 379.41,533.41 379.41,533.41 Z" id="Path" fill="#12A641"></path>
                    <rect id="Rectangle" fill="#000000" opacity="0.1" transform="translate(371.102558, 597.290037) rotate(-84.730000) translate(-371.102558, -597.290037) " x="327.042558" y="596.945037" width="88.12" height="1"></rect>
                    <rect id="Rectangle" fill="#000000" opacity="0.1" transform="translate(391.934475, 599.514536) rotate(-89.780000) translate(-391.934475, -599.514536) " x="345.739475" y="599.169536" width="92.39" height="1"></rect>
                    <rect id="Rectangle" fill="#000000" opacity="0.1" transform="translate(414.738403, 599.680274) rotate(-2.130000) translate(-414.738403, -599.680274) " x="414.393403" y="553.280274" width="1" height="92.8"></rect>
                    <path d="M434.98,641.12 C433.78,588.27 424.78,552.09 424.67,551.77 L425.34,551.6 C425.43,551.96 434.48,588.21 435.67,641.15 L434.98,641.12 Z" id="Path" fill="#000000" opacity="0.1"></path>
                    <path d="M380.61,538.57 C380.61,538.57 379.41,539.26 380.61,542.57" id="Path" fill="#000000" opacity="0.1"></path>
                    <path d="M384.06,538.57 C384.06,538.57 380.79,540.63 384.06,544.08" id="Path" fill="#000000" opacity="0.1"></path>
                    <path d="M414.68,538.57 C414.68,538.57 419.15,542.87 418.12,544.08" id="Path" fill="#000000" opacity="0.1"></path>
                    <path d="M418.28,537.54 C418.28,537.54 418.98,542.7 421.56,544.08" id="Path" fill="#000000" opacity="0.1"></path>
                    <g id="Group" opacity="0.5" transform="translate(571.000000, 526.000000)">
                        <path d="M29.9,3.29 C29.9,3.29 46.78,-3.43 54.08,4.77 C61.38,12.97 49.08,22.95 49.08,22.95 L43.92,33.25 L31.78,31.92 L28.92,17.68 L29.9,3.29 Z" id="Path" fill="#12A641"></path>
                        <path d="M49.08,22.9 L43.92,33.2 L31.78,31.91 L28.92,17.68 L29.92,3.29 L30.19,3.19 C32.33,2.4 46.78,-2.64 53.69,4.3 C53.8342491,4.43239212 53.9711217,4.57260307 54.1,4.72 C61.38,12.88 49.08,22.9 49.08,22.9 Z" id="Path" fill="#000000" opacity="0.1"></path>
                        <path d="M49.08,22.9 L43.92,33.2 L31.78,31.91 L28.92,17.68 L29.92,3.29 L30.19,3.19 C32.28,14.64 37.86,19.47 38.8,20.19 L38.94,20.29 L42.37,20.01 C49.04,16.33 52.56,7.58 53.69,4.27 C53.8342491,4.40239212 53.9711217,4.54260307 54.1,4.69 C61.38,12.88 49.08,22.9 49.08,22.9 Z" id="Path" fill="#000000" opacity="0.1"></path>
                        <path d="M78.56,62.12 C78.56,62.12 74.84,109.5 75.85,115.22 C76.86,120.94 73.7,121.37 73.7,121.37 C73.7,121.37 60.24,124.37 57.7,122.37 C55.16,120.37 50.83,119.98 50.83,119.98 C50.83,119.98 40.83,122.27 36.37,120.56 C31.91,118.85 24.49,119.56 24.49,119.56 C24.49,119.56 18.77,123 17.19,122.28 C15.61,121.56 13.61,121.85 9.03,120.57 C4.45,119.29 1.87,118.13 4.3,110.26 C6.73,102.39 4.6,77.48 4.45,74.47 C4.3,71.46 2.88,64.17 0.87,55.47 C-1.14,46.77 4.3,48.6 4.3,48.6 C17.05,42.02 11.75,29.13 9.75,23.41 C7.75,17.69 10.89,17.41 12.46,17.41 C14.03,17.41 20.05,12.26 20.05,12.26 L22.49,10.07 L29.93,3.39 C31.78,15.9 37.78,21.15 38.78,21.93 L38.92,22.04 L42.35,21.75 C50.65,17.18 54.08,4.75 54.08,4.75 C55.08,6.45 57.31,8.39 59.8,10.19 C63.0585397,12.4951486 66.4548662,14.5990677 69.97,16.49 C75.97,20.07 71.55,23.65 71.55,23.65 C64.25,48.55 74.55,49.65 74.55,49.65 C82.14,50.77 78.56,62.12 78.56,62.12 Z" id="Path" fill="#12A641"></path>
                        <path d="M22.31,17.46 C22.31,17.46 20.16,18.61 20.16,19.89" id="Path" fill="#000000" opacity="0.1"></path>
                        <path d="M23.6,19.89 C23.6,19.89 20.74,22.89 21.24,23.76" id="Path" fill="#000000" opacity="0.1"></path>
                        <path d="M23.6,23.77 C23.6,23.77 21.45,26.06 22.31,27.35" id="Path" fill="#000000" opacity="0.1"></path>
                        <path d="M37.92,23.65 L28.92,32.34 C28.59,22.68 23.92,14.95 21.62,11.69 L29.06,5.01 C30.88,17.62 36.93,22.87 37.92,23.65 Z" id="Path" fill="#000000" opacity="0.1"></path>
                        <path d="M38.78,21.93 L29.78,30.63 C29.46,20.96 24.78,13.24 22.49,9.97 L29.93,3.29 C31.78,15.9 37.78,21.15 38.78,21.93 Z" id="Path" fill="#12A641"></path>
                        <path d="M60.66,11.88 C57.06,17.5 50.37,32.34 50.37,32.34 L43.21,23.47 C51.51,18.89 54.94,6.47 54.94,6.47 C55.94,8.13 58.17,10.07 60.66,11.88 Z" id="Path" fill="#000000" opacity="0.1"></path>
                        <path d="M59.78,10.16 C56.19,15.79 49.49,30.63 49.49,30.63 L42.35,21.77 C50.65,17.2 54.08,4.77 54.08,4.77 C55.08,6.42 57.31,8.36 59.78,10.16 Z" id="Path" fill="#12A641"></path>
                        <path d="M54.52,101.91 C54.52,101.91 52.99,114.91 52.11,115.65" id="Path" fill="#000000" opacity="0.1"></path>
                        <path d="M67.11,104.2 C67.11,104.2 68.83,113.5 68.11,115.65" id="Path" fill="#000000" opacity="0.1"></path>
                        <path d="M30.47,104.77 C30.47,104.77 28.9,113.5 30.47,114.5" id="Path" fill="#000000" opacity="0.1"></path>
                        <path d="M21.18,103.48 C21.18,103.48 19.88,113.79 20.18,115.65" id="Path" fill="#000000" opacity="0.1"></path>
                        <path d="M69.26,53.24 C69.26,53.24 65.26,56.39 65.54,57.24" id="Path" fill="#000000" opacity="0.1"></path>
                        <path d="M72.12,55.25 C72.12,55.25 64.46,61.69 68.29,60.97 C72.12,60.25 72.12,55.25 72.12,55.25 Z" id="Path" fill="#000000" opacity="0.1"></path>
                    </g>
                    <circle id="Oval" fill="#FFFFFF" opacity="0.25" cx="116.96" cy="735.39" r="1"></circle>
                    <circle id="Oval" fill="#FFFFFF" opacity="0.25" cx="125.8" cy="739.77" r="1"></circle>
                    <circle id="Oval" fill="#FFFFFF" opacity="0.25" cx="130.34" cy="741.8" r="1"></circle>
                    <circle id="Oval" fill="#FFFFFF" opacity="0.25" cx="139.77" cy="745.42" r="1"></circle>
                    <circle id="Oval" fill="#FFFFFF" opacity="0.25" cx="134.97" cy="743.88" r="1"></circle>
                    <circle id="Oval" fill="#FFFFFF" opacity="0.25" cx="31.77" cy="707.35" r="1"></circle>
                    <circle id="Oval" fill="#FFFFFF" opacity="0.25" cx="31.3" cy="714.84" r="1"></circle>
                    <path d="M719.4,282 C719.416187,288.98868 715.218765,295.298215 708.766706,297.98389 C702.314648,300.669566 694.879962,299.201908 689.932479,294.265884 C684.984996,289.329861 683.500102,281.898598 686.170809,275.440329 C688.841517,268.98206 695.141301,264.770019 702.13,264.77 C711.652358,264.769974 719.377945,272.477667 719.4,282 Z M700.13,291.14 L712.95,278.33 C713.378189,277.894252 713.378189,277.195748 712.95,276.76 L711.37,275.18 C711.163154,274.96928 710.880276,274.850568 710.585,274.850568 C710.289724,274.850568 710.006846,274.96928 709.8,275.18 L699.35,285.63 L694.47,280.77 C694.030852,280.340614 693.329148,280.340614 692.89,280.77 L691.32,282.35 C691.10928,282.556846 690.990568,282.839724 690.990568,283.135 C690.990568,283.430276 691.10928,283.713154 691.32,283.92 L698.56,291.16 C698.766846,291.37072 699.049724,291.489432 699.345,291.489432 C699.640276,291.489432 699.923154,291.37072 700.13,291.16 L700.13,291.14 Z" id="Shape" fill="#3ACC6C" fill-rule="nonzero"></path>
                    <path d="M510.19,471.54 C510.19,481.077958 502.457958,488.81 492.92,488.81 C483.382042,488.81 475.65,481.077958 475.65,471.54 C475.65,462.002042 483.382042,454.27 492.92,454.27 C502.457958,454.27 510.19,462.002042 510.19,471.54 Z M490.92,480.68 L503.78,467.87 C503.99131,467.661433 504.110256,467.376904 504.110256,467.08 C504.110256,466.783096 503.99131,466.498567 503.78,466.29 L502.16,464.77 C501.951433,464.55869 501.666904,464.439744 501.37,464.439744 C501.073096,464.439744 500.788567,464.55869 500.58,464.77 L490.13,475.17 L485.25,470.29 C485.043154,470.07928 484.760276,469.960568 484.465,469.960568 C484.169724,469.960568 483.886846,470.07928 483.68,470.29 L482.1,471.86 C481.670614,472.299148 481.670614,473.000852 482.1,473.44 L489.34,480.68 C489.548567,480.89131 489.833096,481.010256 490.13,481.010256 C490.426904,481.010256 490.711433,480.89131 490.92,480.68 Z" id="Shape" fill="#3ACC6C" fill-rule="nonzero"></path>
                    <path d="M510.19,660.2 C510.19,669.737958 502.457958,677.47 492.92,677.47 C483.382042,677.47 475.65,669.737958 475.65,660.2 C475.65,650.662042 483.382042,642.93 492.92,642.93 C502.457958,642.93 510.19,650.662042 510.19,660.2 Z M490.92,669.34 L503.78,656.53 C503.99131,656.321433 504.110256,656.036904 504.110256,655.74 C504.110256,655.443096 503.99131,655.158567 503.78,654.95 L502.21,653.38 C502.001433,653.16869 501.716904,653.049744 501.42,653.049744 C501.123096,653.049744 500.838567,653.16869 500.63,653.38 L490.18,663.83 L485.3,658.95 C485.093154,658.73928 484.810276,658.620568 484.515,658.620568 C484.219724,658.620568 483.936846,658.73928 483.73,658.95 L482.15,660.52 C481.720614,660.959148 481.720614,661.660852 482.15,662.1 L489.39,669.34 C489.598567,669.55131 489.883096,669.670256 490.18,669.670256 C490.476904,669.670256 490.761433,669.55131 490.97,669.34 L490.92,669.34 Z" id="Shape" fill="#3ACC6C" fill-rule="nonzero"></path>
                </g>
            </g>
        </g>
    </g>
</svg>