<?xml version="1.0" encoding="UTF-8"?>
<svg width="57px" height="57px" viewBox="0 0 57 57" version="1.1" xmlns="http://www.w3.org/2000/svg" xmlns:xlink="http://www.w3.org/1999/xlink">
    <!-- Generator: Sketch 52.5 (67469) - http://www.bohemiancoding.com/sketch -->
    <title>speedy</title>
    <desc>Created with Sketch.</desc>
    <g id="Page-1" stroke="none" stroke-width="1" fill="none" fill-rule="evenodd">
        <g id="speedy">
            <path d="M29.4,1.6 C28.6,1.2 27.4,1 26,1 C24.6,1 23.4,1.2 22.6,1.6 C21.8,2 21.4,2.5 21.4,3 C21.4,3.6 21.9,4 22.5,4 L29.5,4 C30.1,4 30.6,3.6 30.6,3 C30.6,2.5 30.1,2 29.4,1.6 Z" id="Path" fill="#00B085"></path>
            <rect id="Rectangle" fill="#008C69" x="23" y="3.5" width="6" height="2.6"></rect>
            <path d="M7.5,31 C7.5,25.9 9.6,21.3 12.9,17.9 L24.9,29.9 C24.3,30.5 24.3,31.4 24.9,32 C25.5,32.6 26.4,32.6 27,32 C27.6,31.4 27.6,30.5 27,29.9 L39,17.9 C42.3,21.2 44.4,25.9 44.4,31 C44.4,41.2 36.1,49.5 25.9,49.5 C15.7,49.5 7.5,41.2 7.5,31 Z" id="Path" fill="#00B085"></path>
            <path d="M5,31 C5,19.4 14.4,10 26,10 C37.6,10 47,19.4 47,31 C47,42.6 37.6,52 26,52 C14.4,52 5,42.6 5,31 Z M7.5,31 C7.5,41.2 15.8,49.5 26,49.5 C36.2,49.5 44.5,41.2 44.5,31 C44.5,25.9 42.4,21.3 39.1,17.9 C35.8,14.5 31.1,12.5 26,12.5 C20.9,12.5 16.3,14.6 12.9,17.9 C9.6,21.3 7.5,25.9 7.5,31 Z" id="Shape" fill="#07DAA6" fill-rule="nonzero"></path>
            <path d="M47.2,13.3 L43.7,9.8 L43.3,9.4 L41.4,11.3 L42.1,12 C43.1,12.9 44.1,13.8 44.9,14.8 L45.6,15.5 L47.5,13.6 L47.2,13.3 Z" id="Path" fill="#008A68"></path>
            <path d="M39.1,17.9 C35.8,14.6 31.1,12.5 26,12.5 C20.9,12.5 16.3,14.6 12.9,17.9 L24.9,29.9 C24.3,30.5 24.3,31.4 24.9,32 C25.5,32.6 26.4,32.6 27,32 C27.6,31.4 27.6,30.5 27,29.9 L39.1,17.9 Z" id="Path" fill="#E9E9E9"></path>
            <path d="M46.1,14.5 C45,13.2 43.8,11.9 42.4,10.8 C38.4,7.6 33.6,5.6 28.5,5.1 C26.8,4.9 25,4.9 23.3,5.1 C10.1,6.5 0,17.6 0,31 C0,45.3 11.7,57 26,57 C40.3,57 52,45.3 52,31 C52,25 49.9,19.2 46.1,14.5 Z M26,51 C15,51 6,42 6,31 C6,20 15,11 26,11 C37,11 46,20 46,31 C46,42 37,51 26,51 Z" id="Shape" fill="#394051" fill-rule="nonzero"></path>
            <path d="M53.2,3.8 C56.6,7.2 57.5,11.5 55.3,13.7 C53.8,15.2 51.4,15.3 48.9,14.1 C49.2,14 49.4,13.9 49.6,13.7 C50,13.3 50.1,12.9 50,12.4 C51.6,13.1 53,13.1 53.8,12.3 C55.2,10.9 54.2,7.8 51.7,5.2 C49.2,2.7 46,1.7 44.6,3.1 C43.8,3.9 43.8,5.3 44.5,6.9 C44.4,6.9 44.4,6.9 44.3,6.9 C43.9,6.9 43.5,7 43.2,7.3 C43,7.5 42.9,7.8 42.8,8 C41.6,5.5 41.7,3.1 43.2,1.6 C45.5,-0.6 49.8,0.3 53.2,3.8 Z" id="Path" fill="#00B085"></path>
            <path d="M26,50 C15.5,50 7,41.5 7,31 C7,25.9 9,21.1 12.6,17.6 C16.1,14 20.9,12 26,12 C31.1,12 35.9,14 39.4,17.6 C43,21.1 45,25.9 45,31 C45,41.5 36.5,50 26,50 Z M26,13 C21.2,13 16.7,14.9 13.3,18.3 C9.9,21.7 8,26.2 8,31 C8,40.9 16.1,49 26,49 C35.9,49 44,40.9 44,31 C44,26.2 42.1,21.7 38.7,18.3 C35.3,14.9 30.8,13 26,13 Z" id="Shape" fill="#04CD9C" fill-rule="nonzero"></path>
            <path d="M31.4,35 C31.2,34.7 30.8,34.7 30.5,34.8 L28.2,32.5 C28.8,31.5 28.7,30.2 27.9,29.4 C27.1,28.6 25.7,28.5 24.8,29.1 L15.5,19.8 C15.8,19.2 15.7,18.6 15.2,18.1 C14.6,17.5 13.6,17.5 13.1,18.1 C12.5,18.7 12.5,19.6 13.1,20.2 C13.4,20.5 13.8,20.6 14.2,20.6 C14.4,20.6 14.6,20.5 14.8,20.4 L24.1,29.7 C23.5,30.7 23.6,32 24.4,32.8 C24.9,33.3 25.5,33.5 26.2,33.5 C26.7,33.5 27.2,33.4 27.6,33.1 L29.9,35.4 C29.9,35.5 29.8,35.6 29.8,35.6 C29.8,35.9 29.9,36.1 30.1,36.3 C30.3,36.5 30.5,36.6 30.8,36.6 C31.1,36.6 31.3,36.5 31.5,36.3 C31.7,36.1 31.8,35.9 31.8,35.6 C31.7,35.4 31.5,35.1 31.4,35 Z M13.6,19.3 C13.4,19.1 13.4,18.8 13.6,18.6 C13.7,18.5 13.8,18.5 14,18.5 C14.1,18.5 14.3,18.6 14.4,18.6 C14.6,18.8 14.6,19.1 14.4,19.3 C14.2,19.5 13.8,19.5 13.6,19.3 Z M26.4,31.4 C26.2,31.6 25.9,31.6 25.7,31.4 C25.5,31.2 25.5,30.9 25.7,30.7 C25.8,30.6 25.9,30.6 26.1,30.6 C26.3,30.6 26.4,30.7 26.5,30.7 C26.6,30.8 26.6,31.2 26.4,31.4 Z" id="Shape" fill="#394051" fill-rule="nonzero"></path>
            <path d="M50.8,6.2 C50.1,5.6 49.3,5.2 48.5,5.1 C47.6,5 46.8,5.3 46.2,5.9 C45.7,6.4 45.5,7 45.4,7.8 L49.3,11.7 C50,11.7 50.6,11.4 51.1,10.9 C51.7,10.3 52,9.5 51.9,8.6 C51.8,7.7 51.4,6.9 50.8,6.2 Z" id="Path" fill="#008867"></path>
            <path d="M50.6,12.3 C50.5,11.9 50.3,11.5 50,11.2 L45.8,7 C45.5,6.7 45.1,6.5 44.7,6.5 C44.1,6.3 43.4,6.5 43,7 C42.7,7.3 42.6,7.6 42.5,8 C42.4,8.7 42.6,9.4 43,9.9 L47.3,14.1 C47.7,14.5 48.2,14.7 48.7,14.7 C48.9,14.7 49,14.7 49.1,14.6 C49.5,14.5 49.8,14.3 50.1,14.1 C50.5,13.6 50.7,13 50.6,12.3 Z" id="Path" fill="#00B085"></path>
            <path d="M15.9,28.3 C17.4,22.7 23.2,19.4 28.8,20.9 C33.1,22 34.7,15.8 30.5,14.6 C21.4,12.2 12.1,17.6 9.7,26.6 C8.5,30.5 14.8,32.2 15.9,28.3 Z" id="Path" fill="#FFFFFF" opacity="0.5"></path>
            <g id="Group" transform="translate(6.000000, 8.000000)" fill="#FFFFFF">
                <path d="M35.5,38.5 C36.4,37.6 37.2,36.7 37.9,35.7 C39.3,34.6 40.6,36.2 39.2,37.3 C38.5,38.2 37.8,39.1 36.9,39.9 C35.8,41 34.6,42 33.4,42.8 C31.9,43.5 31,41.7 32.5,41 C33.6,40.3 34.6,39.5 35.5,38.5 Z" id="Path"></path>
                <path d="M11.6,2.7 C12.9,1.8 11.7,0.1 10.4,1 C6.5,2.7 3.1,5.4 0.6,8.8 C-0.4,10.1 1.2,11.3 2.2,10 C4.6,6.8 7.9,4.2 11.6,2.7 Z" id="Path"></path>
            </g>
        </g>
    </g>
</svg>